<?xml version="1.0" encoding="UTF-8"?><svg xmlns="http://www.w3.org/2000/svg" xmlns:xlink="http://www.w3.org/1999/xlink" fill-opacity="1" color-rendering="auto" color-interpolation="auto" text-rendering="auto" stroke="black" stroke-linecap="square" width="491" stroke-miterlimit="10" shape-rendering="auto" stroke-opacity="1" fill="black" stroke-dasharray="none" font-weight="normal" stroke-width="1" height="1040" font-family="'Dialog'" font-style="normal" stroke-linejoin="miter" font-size="12px" stroke-dashoffset="0" image-rendering="auto">
  <!--Generated by ySVG 2.6-->
  <defs id="genericDefs"/>
  <g>
    <defs id="defs1">
      <linearGradient x1="757.456" gradientUnits="userSpaceOnUse" x2="987.456" y1="238" y2="278" id="linearGradient1" spreadMethod="reflect">
        <stop stop-opacity="1" stop-color="white" offset="0%"/>
        <stop stop-opacity="1" stop-color="white" offset="100%"/>
      </linearGradient>
      <linearGradient x1="757.456" gradientUnits="userSpaceOnUse" x2="987.456" y1="378" y2="418" id="linearGradient2" spreadMethod="reflect">
        <stop stop-opacity="1" stop-color="white" offset="0%"/>
        <stop stop-opacity="1" stop-color="white" offset="100%"/>
      </linearGradient>
      <linearGradient x1="757.456" gradientUnits="userSpaceOnUse" x2="987.456" y1="308" y2="348" id="linearGradient3" spreadMethod="reflect">
        <stop stop-opacity="1" stop-color="white" offset="0%"/>
        <stop stop-opacity="1" stop-color="white" offset="100%"/>
      </linearGradient>
      <linearGradient x1="757.456" gradientUnits="userSpaceOnUse" x2="987.456" y1="448" y2="488" id="linearGradient4" spreadMethod="reflect">
        <stop stop-opacity="1" stop-color="white" offset="0%"/>
        <stop stop-opacity="1" stop-color="white" offset="100%"/>
      </linearGradient>
      <linearGradient x1="757.456" gradientUnits="userSpaceOnUse" x2="987.456" y1="518" y2="558" id="linearGradient5" spreadMethod="reflect">
        <stop stop-opacity="1" stop-color="white" offset="0%"/>
        <stop stop-opacity="1" stop-color="white" offset="100%"/>
      </linearGradient>
      <linearGradient x1="757.456" gradientUnits="userSpaceOnUse" x2="987.456" y1="658" y2="698" id="linearGradient6" spreadMethod="reflect">
        <stop stop-opacity="1" stop-color="white" offset="0%"/>
        <stop stop-opacity="1" stop-color="white" offset="100%"/>
      </linearGradient>
      <linearGradient x1="757.456" gradientUnits="userSpaceOnUse" x2="987.456" y1="728" y2="787.84" id="linearGradient7" spreadMethod="reflect">
        <stop stop-opacity="1" stop-color="white" offset="0%"/>
        <stop stop-opacity="1" stop-color="white" offset="100%"/>
      </linearGradient>
      <linearGradient x1="757.456" gradientUnits="userSpaceOnUse" x2="987.456" y1="588" y2="628" id="linearGradient8" spreadMethod="reflect">
        <stop stop-opacity="1" stop-color="white" offset="0%"/>
        <stop stop-opacity="1" stop-color="white" offset="100%"/>
      </linearGradient>
      <linearGradient x1="987.456" gradientUnits="userSpaceOnUse" x2="1217.4561" y1="787.84" y2="827.84" id="linearGradient9" spreadMethod="reflect">
        <stop stop-opacity="1" stop-color="white" offset="0%"/>
        <stop stop-opacity="1" stop-color="white" offset="100%"/>
      </linearGradient>
      <linearGradient x1="987.456" gradientUnits="userSpaceOnUse" x2="1217.4561" y1="857.84" y2="897.84" id="linearGradient10" spreadMethod="reflect">
        <stop stop-opacity="1" stop-color="white" offset="0%"/>
        <stop stop-opacity="1" stop-color="white" offset="100%"/>
      </linearGradient>
      <linearGradient x1="757.456" gradientUnits="userSpaceOnUse" x2="987.456" y1="927.84" y2="967.84" id="linearGradient11" spreadMethod="reflect">
        <stop stop-opacity="1" stop-color="white" offset="0%"/>
        <stop stop-opacity="1" stop-color="white" offset="100%"/>
      </linearGradient>
      <linearGradient x1="757.456" gradientUnits="userSpaceOnUse" x2="987.456" y1="997.84" y2="1037.84" id="linearGradient12" spreadMethod="reflect">
        <stop stop-opacity="1" stop-color="white" offset="0%"/>
        <stop stop-opacity="1" stop-color="white" offset="100%"/>
      </linearGradient>
      <linearGradient x1="757.456" gradientUnits="userSpaceOnUse" x2="987.456" y1="1067.84" y2="1107.84" id="linearGradient13" spreadMethod="reflect">
        <stop stop-opacity="1" stop-color="white" offset="0%"/>
        <stop stop-opacity="1" stop-color="white" offset="100%"/>
      </linearGradient>
      <linearGradient x1="757.456" gradientUnits="userSpaceOnUse" x2="987.456" y1="1137.84" y2="1177.84" id="linearGradient14" spreadMethod="reflect">
        <stop stop-opacity="1" stop-color="white" offset="0%"/>
        <stop stop-opacity="1" stop-color="white" offset="100%"/>
      </linearGradient>
      <linearGradient x1="757.456" gradientUnits="userSpaceOnUse" x2="987.456" y1="1207.84" y2="1247.84" id="linearGradient15" spreadMethod="reflect">
        <stop stop-opacity="1" stop-color="white" offset="0%"/>
        <stop stop-opacity="1" stop-color="white" offset="100%"/>
      </linearGradient>
      <clipPath clipPathUnits="userSpaceOnUse" id="clipPath1">
        <path d="M0 0 L491 0 L491 1040 L0 1040 L0 0 Z"/>
      </clipPath>
      <clipPath clipPathUnits="userSpaceOnUse" id="clipPath2">
        <path d="M742 223 L1233 223 L1233 1263 L742 1263 L742 223 Z"/>
      </clipPath>
    </defs>
    <g fill="white" text-rendering="geometricPrecision" shape-rendering="geometricPrecision" transform="translate(-742,-223)" stroke="white">
      <rect x="742" width="491" height="1040" y="223" clip-path="url(#clipPath2)" stroke="none"/>
    </g>
    <g fill="url(#linearGradient1)" text-rendering="geometricPrecision" shape-rendering="geometricPrecision" transform="matrix(1,0,0,1,-742,-223)" stroke="url(#linearGradient1)">
      <rect x="757.456" y="238" clip-path="url(#clipPath2)" width="230" rx="20" ry="20" height="40" stroke="none"/>
    </g>
    <g text-rendering="geometricPrecision" stroke-miterlimit="1.45" shape-rendering="geometricPrecision" transform="matrix(1,0,0,1,-742,-223)" stroke-linecap="butt">
      <rect x="757.456" y="238" clip-path="url(#clipPath2)" fill="none" width="230" rx="20" ry="20" height="40"/>
      <text x="850.8525" xml:space="preserve" y="261.1934" clip-path="url(#clipPath2)" font-family="sans-serif" stroke="none">Начало</text>
    </g>
    <g fill="url(#linearGradient2)" text-rendering="geometricPrecision" shape-rendering="geometricPrecision" transform="matrix(1,0,0,1,-742,-223)" stroke="url(#linearGradient2)">
      <path d="M767.456 378 L977.456 378 L987.456 388 L987.456 418 L757.456 418 L757.456 388 Z" stroke="none" clip-path="url(#clipPath2)"/>
    </g>
    <g text-rendering="geometricPrecision" stroke-miterlimit="1.45" shape-rendering="geometricPrecision" transform="matrix(1,0,0,1,-742,-223)" stroke-linecap="butt">
      <path fill="none" d="M767.456 378 L977.456 378 L987.456 388 L987.456 418 L757.456 418 L757.456 388 Z" clip-path="url(#clipPath2)"/>
      <text x="768.039" xml:space="preserve" y="401.1934" clip-path="url(#clipPath2)" font-family="sans-serif" stroke="none">Для каждой ячейки изображения</text>
    </g>
    <g fill="url(#linearGradient3)" text-rendering="geometricPrecision" shape-rendering="geometricPrecision" transform="matrix(1,0,0,1,-742,-223)" stroke="url(#linearGradient3)">
      <path d="M757.456 308 L987.456 308 L987.456 348 L757.456 348 Z" stroke="none" clip-path="url(#clipPath2)"/>
    </g>
    <g text-rendering="geometricPrecision" stroke-miterlimit="1.45" shape-rendering="geometricPrecision" transform="matrix(1,0,0,1,-742,-223)" stroke-linecap="butt">
      <path fill="none" d="M757.456 308 L987.456 308 L987.456 348 L757.456 348 Z" clip-path="url(#clipPath2)"/>
      <text x="796.8437" xml:space="preserve" y="317.5996" clip-path="url(#clipPath2)" font-family="sans-serif" stroke="none">canvas = матрица XxY,</text>
      <text x="818.4472" xml:space="preserve" y="331.1934" clip-path="url(#clipPath2)" font-family="sans-serif" stroke="none">соответствующая</text>
      <text x="804.0449" xml:space="preserve" y="344.7871" clip-path="url(#clipPath2)" font-family="sans-serif" stroke="none">ячейкам изображения</text>
    </g>
    <g fill="url(#linearGradient4)" text-rendering="geometricPrecision" shape-rendering="geometricPrecision" transform="matrix(1,0,0,1,-742,-223)" stroke="url(#linearGradient4)">
      <path d="M757.456 448 L987.456 448 L987.456 488 L757.456 488 Z" stroke="none" clip-path="url(#clipPath2)"/>
    </g>
    <g text-rendering="geometricPrecision" stroke-miterlimit="1.45" shape-rendering="geometricPrecision" transform="matrix(1,0,0,1,-742,-223)" stroke-linecap="butt">
      <path fill="none" d="M757.456 448 L987.456 448 L987.456 488 L757.456 488 Z" clip-path="url(#clipPath2)"/>
      <text x="807.6454" xml:space="preserve" y="471.1934" clip-path="url(#clipPath2)" font-family="sans-serif" stroke="none">b = яркость ячейки</text>
    </g>
    <g fill="url(#linearGradient5)" text-rendering="geometricPrecision" shape-rendering="geometricPrecision" transform="matrix(1,0,0,1,-742,-223)" stroke="url(#linearGradient5)">
      <path d="M757.456 518 L987.456 518 L987.456 558 L757.456 558 Z" stroke="none" clip-path="url(#clipPath2)"/>
    </g>
    <g text-rendering="geometricPrecision" stroke-miterlimit="1.45" shape-rendering="geometricPrecision" transform="matrix(1,0,0,1,-742,-223)" stroke-linecap="butt">
      <path fill="none" d="M757.456 518 L987.456 518 L987.456 558 L757.456 558 Z" clip-path="url(#clipPath2)"/>
      <text x="840.0507" xml:space="preserve" y="541.1934" clip-path="url(#clipPath2)" font-family="sans-serif" stroke="none">delt = +∞</text>
    </g>
    <g fill="url(#linearGradient6)" text-rendering="geometricPrecision" shape-rendering="geometricPrecision" transform="matrix(1,0,0,1,-742,-223)" stroke="url(#linearGradient6)">
      <path d="M767.456 658 L977.456 658 L987.456 668 L987.456 698 L757.456 698 L757.456 668 Z" stroke="none" clip-path="url(#clipPath2)"/>
    </g>
    <g text-rendering="geometricPrecision" stroke-miterlimit="1.45" shape-rendering="geometricPrecision" transform="matrix(1,0,0,1,-742,-223)" stroke-linecap="butt">
      <path fill="none" d="M767.456 658 L977.456 658 L987.456 668 L987.456 698 L757.456 698 L757.456 668 Z" clip-path="url(#clipPath2)"/>
      <text x="793.2431" xml:space="preserve" y="674.3965" clip-path="url(#clipPath2)" font-family="sans-serif" stroke="none">Для каждого доступного</text>
      <text x="829.249" xml:space="preserve" y="687.9902" clip-path="url(#clipPath2)" font-family="sans-serif" stroke="none">символа symb</text>
    </g>
    <g fill="url(#linearGradient7)" text-rendering="geometricPrecision" shape-rendering="geometricPrecision" transform="matrix(1,0,0,1,-742,-223)" stroke="url(#linearGradient7)">
      <path d="M872.456 728 L987.456 757.92 L872.456 787.84 L757.456 757.92 Z" stroke="none" clip-path="url(#clipPath2)"/>
    </g>
    <g text-rendering="geometricPrecision" stroke-miterlimit="1.45" shape-rendering="geometricPrecision" transform="matrix(1,0,0,1,-742,-223)" stroke-linecap="butt">
      <path fill="none" d="M872.456 728 L987.456 757.92 L872.456 787.84 L757.456 757.92 Z" clip-path="url(#clipPath2)"/>
      <text x="804.0449" xml:space="preserve" y="761.1133" clip-path="url(#clipPath2)" font-family="sans-serif" stroke="none">|k_symb - b| &lt; delt</text>
    </g>
    <g fill="url(#linearGradient8)" text-rendering="geometricPrecision" shape-rendering="geometricPrecision" transform="matrix(1,0,0,1,-742,-223)" stroke="url(#linearGradient8)">
      <path d="M757.456 588 L987.456 588 L987.456 628 L757.456 628 Z" stroke="none" clip-path="url(#clipPath2)"/>
    </g>
    <g text-rendering="geometricPrecision" stroke-miterlimit="1.45" shape-rendering="geometricPrecision" transform="matrix(1,0,0,1,-742,-223)" stroke-linecap="butt">
      <path fill="none" d="M757.456 588 L987.456 588 L987.456 628 L757.456 628 Z" clip-path="url(#clipPath2)"/>
      <text x="818.4472" xml:space="preserve" y="611.1934" clip-path="url(#clipPath2)" font-family="sans-serif" stroke="none">min_symb = null</text>
    </g>
    <g fill="url(#linearGradient9)" text-rendering="geometricPrecision" shape-rendering="geometricPrecision" transform="matrix(1,0,0,1,-742,-223)" stroke="url(#linearGradient9)">
      <path d="M987.456 787.84 L1217.4561 787.84 L1217.4561 827.84 L987.456 827.84 Z" stroke="none" clip-path="url(#clipPath2)"/>
    </g>
    <g text-rendering="geometricPrecision" stroke-miterlimit="1.45" shape-rendering="geometricPrecision" transform="matrix(1,0,0,1,-742,-223)" stroke-linecap="butt">
      <path fill="none" d="M987.456 787.84 L1217.4561 787.84 L1217.4561 827.84 L987.456 827.84 Z" clip-path="url(#clipPath2)"/>
      <text x="1034.0449" xml:space="preserve" y="811.0334" clip-path="url(#clipPath2)" font-family="sans-serif" stroke="none">delt = |k_symb - b|</text>
    </g>
    <g fill="url(#linearGradient10)" text-rendering="geometricPrecision" shape-rendering="geometricPrecision" transform="matrix(1,0,0,1,-742,-223)" stroke="url(#linearGradient10)">
      <path d="M987.456 857.84 L1217.4561 857.84 L1217.4561 897.84 L987.456 897.84 Z" stroke="none" clip-path="url(#clipPath2)"/>
    </g>
    <g text-rendering="geometricPrecision" stroke-miterlimit="1.45" shape-rendering="geometricPrecision" transform="matrix(1,0,0,1,-742,-223)" stroke-linecap="butt">
      <path fill="none" d="M987.456 857.84 L1217.4561 857.84 L1217.4561 897.84 L987.456 897.84 Z" clip-path="url(#clipPath2)"/>
      <text x="1048.4473" xml:space="preserve" y="881.0334" clip-path="url(#clipPath2)" font-family="sans-serif" stroke="none">min_symb = symb</text>
    </g>
    <g fill="url(#linearGradient11)" text-rendering="geometricPrecision" shape-rendering="geometricPrecision" transform="matrix(1,0,0,1,-742,-223)" stroke="url(#linearGradient11)">
      <path d="M757.456 927.84 L987.456 927.84 L987.456 957.84 L977.456 967.84 L767.456 967.84 L757.456 957.84 Z" stroke="none" clip-path="url(#clipPath2)"/>
    </g>
    <g text-rendering="geometricPrecision" stroke-miterlimit="1.45" shape-rendering="geometricPrecision" transform="matrix(1,0,0,1,-742,-223)" stroke-linecap="butt">
      <path fill="none" d="M757.456 927.84 L987.456 927.84 L987.456 957.84 L977.456 967.84 L767.456 967.84 L757.456 957.84 Z" clip-path="url(#clipPath2)"/>
      <text x="804.0449" xml:space="preserve" y="951.0334" clip-path="url(#clipPath2)" font-family="sans-serif" stroke="none">Конец цикла по symb</text>
    </g>
    <g fill="url(#linearGradient12)" text-rendering="geometricPrecision" shape-rendering="geometricPrecision" transform="matrix(1,0,0,1,-742,-223)" stroke="url(#linearGradient12)">
      <path d="M757.456 997.84 L987.456 997.84 L987.456 1037.84 L757.456 1037.84 Z" stroke="none" clip-path="url(#clipPath2)"/>
    </g>
    <g text-rendering="geometricPrecision" stroke-miterlimit="1.45" shape-rendering="geometricPrecision" transform="matrix(1,0,0,1,-742,-223)" stroke-linecap="butt">
      <path fill="none" d="M757.456 997.84 L987.456 997.84 L987.456 1037.84 L757.456 1037.84 Z" clip-path="url(#clipPath2)"/>
      <text x="793.2431" xml:space="preserve" y="1021.0334" clip-path="url(#clipPath2)" font-family="sans-serif" stroke="none">canvas(x,y) = min_symb</text>
    </g>
    <g fill="url(#linearGradient13)" text-rendering="geometricPrecision" shape-rendering="geometricPrecision" transform="matrix(1,0,0,1,-742,-223)" stroke="url(#linearGradient13)">
      <path d="M757.456 1067.84 L987.456 1067.84 L987.456 1097.84 L977.456 1107.84 L767.456 1107.84 L757.456 1097.84 Z" stroke="none" clip-path="url(#clipPath2)"/>
    </g>
    <g text-rendering="geometricPrecision" stroke-miterlimit="1.45" shape-rendering="geometricPrecision" transform="matrix(1,0,0,1,-742,-223)" stroke-linecap="butt">
      <path fill="none" d="M757.456 1067.84 L987.456 1067.84 L987.456 1097.84 L977.456 1107.84 L767.456 1107.84 L757.456 1097.84 Z" clip-path="url(#clipPath2)"/>
      <text x="793.2431" xml:space="preserve" y="1091.0333" clip-path="url(#clipPath2)" font-family="sans-serif" stroke="none">Конец цикла по ячейкам</text>
    </g>
    <g fill="url(#linearGradient14)" text-rendering="geometricPrecision" shape-rendering="geometricPrecision" transform="matrix(1,0,0,1,-742,-223)" stroke="url(#linearGradient14)">
      <path d="M767.656 1137.84 L987.456 1137.84 L977.256 1177.84 L757.456 1177.84 Z" stroke="none" clip-path="url(#clipPath2)"/>
    </g>
    <g text-rendering="geometricPrecision" stroke-miterlimit="1.45" shape-rendering="geometricPrecision" transform="matrix(1,0,0,1,-742,-223)" stroke-linecap="butt">
      <path fill="none" d="M767.656 1137.84 L987.456 1137.84 L977.256 1177.84 L757.456 1177.84 Z" clip-path="url(#clipPath2)"/>
      <text x="822.0478" xml:space="preserve" y="1161.0333" clip-path="url(#clipPath2)" font-family="sans-serif" stroke="none">Возврат canvas</text>
    </g>
    <g fill="url(#linearGradient15)" text-rendering="geometricPrecision" shape-rendering="geometricPrecision" transform="matrix(1,0,0,1,-742,-223)" stroke="url(#linearGradient15)">
      <rect x="757.456" y="1207.84" clip-path="url(#clipPath2)" width="230" rx="20" ry="20" height="40" stroke="none"/>
    </g>
    <g text-rendering="geometricPrecision" stroke-miterlimit="1.45" shape-rendering="geometricPrecision" transform="matrix(1,0,0,1,-742,-223)" stroke-linecap="butt">
      <rect x="757.456" y="1207.84" clip-path="url(#clipPath2)" fill="none" width="230" rx="20" ry="20" height="40"/>
      <text x="854.4531" xml:space="preserve" y="1231.0333" clip-path="url(#clipPath2)" font-family="sans-serif" stroke="none">Конец</text>
    </g>
    <g text-rendering="geometricPrecision" stroke-miterlimit="1.45" shape-rendering="geometricPrecision" transform="matrix(1,0,0,1,-742,-223)" stroke-linecap="butt">
      <path fill="none" d="M872.456 277.9951 L872.456 300.0273" clip-path="url(#clipPath2)"/>
    </g>
    <g text-rendering="geometricPrecision" stroke-miterlimit="1.45" shape-rendering="geometricPrecision" transform="matrix(1,0,0,1,-742,-223)" stroke-linecap="butt">
      <path d="M872.456 308.0273 L877.456 296.0273 L872.456 299.0273 L867.456 296.0273 Z" stroke="none" clip-path="url(#clipPath2)"/>
      <path fill="none" d="M872.456 347.9951 L872.456 370.0273" clip-path="url(#clipPath2)"/>
      <path d="M872.456 378.0273 L877.456 366.0273 L872.456 369.0273 L867.456 366.0273 Z" clip-path="url(#clipPath2)" stroke="none"/>
      <path fill="none" d="M872.456 417.9951 L872.456 440.0273" clip-path="url(#clipPath2)"/>
      <path d="M872.456 448.0273 L877.456 436.0273 L872.456 439.0273 L867.456 436.0273 Z" clip-path="url(#clipPath2)" stroke="none"/>
      <path fill="none" d="M872.456 487.9951 L872.456 510.0273" clip-path="url(#clipPath2)"/>
      <path d="M872.456 518.0273 L877.456 506.0273 L872.456 509.0273 L867.456 506.0273 Z" clip-path="url(#clipPath2)" stroke="none"/>
      <path fill="none" d="M872.456 698.019 L872.456 719.9988" clip-path="url(#clipPath2)"/>
      <path d="M872.456 727.9988 L877.456 715.9988 L872.456 718.9988 L867.456 715.9988 Z" clip-path="url(#clipPath2)" stroke="none"/>
      <path fill="none" d="M872.456 557.9951 L872.456 580.0273" clip-path="url(#clipPath2)"/>
      <path d="M872.456 588.0273 L877.456 576.0273 L872.456 579.0273 L867.456 576.0273 Z" clip-path="url(#clipPath2)" stroke="none"/>
      <path fill="none" d="M872.456 627.9951 L872.456 650.0273" clip-path="url(#clipPath2)"/>
      <path d="M872.456 658.0273 L877.456 646.0273 L872.456 649.0273 L867.456 646.0273 Z" clip-path="url(#clipPath2)" stroke="none"/>
      <path fill="none" d="M987.4279 757.92 L1102.4561 757.92 L1102.4561 779.8038" clip-path="url(#clipPath2)"/>
      <path d="M1102.4561 787.8038 L1107.4561 775.8038 L1102.4561 778.8038 L1097.4561 775.8038 Z" clip-path="url(#clipPath2)" stroke="none"/>
      <path fill="none" d="M1102.4561 827.8351 L1102.4561 849.8674" clip-path="url(#clipPath2)"/>
      <path d="M1102.4561 857.8674 L1107.4561 845.8674 L1102.4561 848.8674 L1097.4561 845.8674 Z" clip-path="url(#clipPath2)" stroke="none"/>
      <path fill="none" d="M872.456 787.8268 L872.456 919.8774" clip-path="url(#clipPath2)"/>
      <path d="M872.456 927.8774 L877.456 915.8774 L872.456 918.8774 L867.456 915.8774 Z" clip-path="url(#clipPath2)" stroke="none"/>
      <path fill="none" d="M1102.4561 897.8578 L1102.4561 913 L872.456 913 L872.456 919.8682" clip-path="url(#clipPath2)"/>
      <path d="M872.456 927.8682 L877.456 915.8682 L872.456 918.8682 L867.456 915.8682 Z" clip-path="url(#clipPath2)" stroke="none"/>
      <path fill="none" d="M872.456 967.8351 L872.456 989.8674" clip-path="url(#clipPath2)"/>
      <path d="M872.456 997.8674 L877.456 985.8674 L872.456 988.8674 L867.456 985.8674 Z" clip-path="url(#clipPath2)" stroke="none"/>
      <path fill="none" d="M872.456 1037.8351 L872.456 1059.8673" clip-path="url(#clipPath2)"/>
      <path d="M872.456 1067.8673 L877.456 1055.8673 L872.456 1058.8673 L867.456 1055.8673 Z" clip-path="url(#clipPath2)" stroke="none"/>
      <path fill="none" d="M872.456 1107.8351 L872.456 1129.8673" clip-path="url(#clipPath2)"/>
      <path d="M872.456 1137.8673 L877.456 1125.8673 L872.456 1128.8673 L867.456 1125.8673 Z" clip-path="url(#clipPath2)" stroke="none"/>
      <path fill="none" d="M872.456 1177.8351 L872.456 1199.8673" clip-path="url(#clipPath2)"/>
      <path d="M872.456 1207.8673 L877.456 1195.8673 L872.456 1198.8673 L867.456 1195.8673 Z" clip-path="url(#clipPath2)" stroke="none"/>
    </g>
  </g>
</svg>
