<?xml version="1.0" encoding="UTF-8"?><svg xmlns="http://www.w3.org/2000/svg" xmlns:xlink="http://www.w3.org/1999/xlink" fill-opacity="1" color-rendering="auto" color-interpolation="auto" text-rendering="auto" stroke="black" stroke-linecap="square" width="840" stroke-miterlimit="10" shape-rendering="auto" stroke-opacity="1" fill="black" stroke-dasharray="none" font-weight="normal" stroke-width="1" height="920" font-family="'Dialog'" font-style="normal" stroke-linejoin="miter" font-size="12px" stroke-dashoffset="0" image-rendering="auto">
  <!--Generated by ySVG 2.6-->
  <defs id="genericDefs"/>
  <g>
    <defs id="defs1">
      <linearGradient x1="731.728" gradientUnits="userSpaceOnUse" x2="961.728" y1="213" y2="253" id="linearGradient1" spreadMethod="reflect">
        <stop stop-opacity="1" stop-color="white" offset="0%"/>
        <stop stop-opacity="1" stop-color="white" offset="100%"/>
      </linearGradient>
      <linearGradient x1="731.728" gradientUnits="userSpaceOnUse" x2="961.728" y1="493" y2="533" id="linearGradient2" spreadMethod="reflect">
        <stop stop-opacity="1" stop-color="white" offset="0%"/>
        <stop stop-opacity="1" stop-color="white" offset="100%"/>
      </linearGradient>
      <linearGradient x1="731.728" gradientUnits="userSpaceOnUse" x2="961.728" y1="632" y2="672" id="linearGradient3" spreadMethod="reflect">
        <stop stop-opacity="1" stop-color="white" offset="0%"/>
        <stop stop-opacity="1" stop-color="white" offset="100%"/>
      </linearGradient>
      <linearGradient x1="731.728" gradientUnits="userSpaceOnUse" x2="961.728" y1="702" y2="742" id="linearGradient4" spreadMethod="reflect">
        <stop stop-opacity="1" stop-color="white" offset="0%"/>
        <stop stop-opacity="1" stop-color="white" offset="100%"/>
      </linearGradient>
      <linearGradient x1="731.728" gradientUnits="userSpaceOnUse" x2="961.728" y1="563" y2="603" id="linearGradient5" spreadMethod="reflect">
        <stop stop-opacity="1" stop-color="white" offset="0%"/>
        <stop stop-opacity="1" stop-color="white" offset="100%"/>
      </linearGradient>
      <linearGradient x1="731.728" gradientUnits="userSpaceOnUse" x2="961.728" y1="283" y2="323" id="linearGradient6" spreadMethod="reflect">
        <stop stop-opacity="1" stop-color="white" offset="0%"/>
        <stop stop-opacity="1" stop-color="white" offset="100%"/>
      </linearGradient>
      <linearGradient x1="731.728" gradientUnits="userSpaceOnUse" x2="961.728" y1="353" y2="393" id="linearGradient7" spreadMethod="reflect">
        <stop stop-opacity="1" stop-color="white" offset="0%"/>
        <stop stop-opacity="1" stop-color="white" offset="100%"/>
      </linearGradient>
      <linearGradient x1="731.728" gradientUnits="userSpaceOnUse" x2="961.728" y1="772" y2="812" id="linearGradient8" spreadMethod="reflect">
        <stop stop-opacity="1" stop-color="white" offset="0%"/>
        <stop stop-opacity="1" stop-color="white" offset="100%"/>
      </linearGradient>
      <linearGradient x1="731.728" gradientUnits="userSpaceOnUse" x2="961.728" y1="842" y2="882" id="linearGradient9" spreadMethod="reflect">
        <stop stop-opacity="1" stop-color="white" offset="0%"/>
        <stop stop-opacity="1" stop-color="white" offset="100%"/>
      </linearGradient>
      <linearGradient x1="1080.8491" gradientUnits="userSpaceOnUse" x2="1310.8491" y1="272.08" y2="312.08" id="linearGradient10" spreadMethod="reflect">
        <stop stop-opacity="1" stop-color="white" offset="0%"/>
        <stop stop-opacity="1" stop-color="white" offset="100%"/>
      </linearGradient>
      <linearGradient x1="1080.8491" gradientUnits="userSpaceOnUse" x2="1310.8491" y1="412.08" y2="452.08" id="linearGradient11" spreadMethod="reflect">
        <stop stop-opacity="1" stop-color="white" offset="0%"/>
        <stop stop-opacity="1" stop-color="white" offset="100%"/>
      </linearGradient>
      <linearGradient x1="1080.8491" gradientUnits="userSpaceOnUse" x2="1310.8491" y1="482.08" y2="522.08" id="linearGradient12" spreadMethod="reflect">
        <stop stop-opacity="1" stop-color="white" offset="0%"/>
        <stop stop-opacity="1" stop-color="white" offset="100%"/>
      </linearGradient>
      <linearGradient x1="1080.8491" gradientUnits="userSpaceOnUse" x2="1310.8491" y1="342.08" y2="382.08" id="linearGradient13" spreadMethod="reflect">
        <stop stop-opacity="1" stop-color="white" offset="0%"/>
        <stop stop-opacity="1" stop-color="white" offset="100%"/>
      </linearGradient>
      <linearGradient x1="1080.8491" gradientUnits="userSpaceOnUse" x2="1310.8491" y1="552.08" y2="592.08" id="linearGradient14" spreadMethod="reflect">
        <stop stop-opacity="1" stop-color="white" offset="0%"/>
        <stop stop-opacity="1" stop-color="white" offset="100%"/>
      </linearGradient>
      <linearGradient x1="731.728" gradientUnits="userSpaceOnUse" x2="961.728" y1="912" y2="952" id="linearGradient15" spreadMethod="reflect">
        <stop stop-opacity="1" stop-color="white" offset="0%"/>
        <stop stop-opacity="1" stop-color="white" offset="100%"/>
      </linearGradient>
      <linearGradient x1="1080.8491" gradientUnits="userSpaceOnUse" x2="1310.8491" y1="622.08" y2="681.92" id="linearGradient16" spreadMethod="reflect">
        <stop stop-opacity="1" stop-color="white" offset="0%"/>
        <stop stop-opacity="1" stop-color="white" offset="100%"/>
      </linearGradient>
      <linearGradient x1="1310.8491" gradientUnits="userSpaceOnUse" x2="1540.8491" y1="711.92" y2="751.92" id="linearGradient17" spreadMethod="reflect">
        <stop stop-opacity="1" stop-color="white" offset="0%"/>
        <stop stop-opacity="1" stop-color="white" offset="100%"/>
      </linearGradient>
      <linearGradient x1="1080.8491" gradientUnits="userSpaceOnUse" x2="1310.8491" y1="781.92" y2="821.92" id="linearGradient18" spreadMethod="reflect">
        <stop stop-opacity="1" stop-color="white" offset="0%"/>
        <stop stop-opacity="1" stop-color="white" offset="100%"/>
      </linearGradient>
      <linearGradient x1="731.728" gradientUnits="userSpaceOnUse" x2="961.728" y1="982" y2="1022" id="linearGradient19" spreadMethod="reflect">
        <stop stop-opacity="1" stop-color="white" offset="0%"/>
        <stop stop-opacity="1" stop-color="white" offset="100%"/>
      </linearGradient>
      <linearGradient x1="731.728" gradientUnits="userSpaceOnUse" x2="961.728" y1="423" y2="463" id="linearGradient20" spreadMethod="reflect">
        <stop stop-opacity="1" stop-color="white" offset="0%"/>
        <stop stop-opacity="1" stop-color="white" offset="100%"/>
      </linearGradient>
      <linearGradient x1="1080.8491" gradientUnits="userSpaceOnUse" x2="1310.8491" y1="851.92" y2="891.92" id="linearGradient21" spreadMethod="reflect">
        <stop stop-opacity="1" stop-color="white" offset="0%"/>
        <stop stop-opacity="1" stop-color="white" offset="100%"/>
      </linearGradient>
      <linearGradient x1="1080.8491" gradientUnits="userSpaceOnUse" x2="1310.8491" y1="921.92" y2="961.92" id="linearGradient22" spreadMethod="reflect">
        <stop stop-opacity="1" stop-color="white" offset="0%"/>
        <stop stop-opacity="1" stop-color="white" offset="100%"/>
      </linearGradient>
      <linearGradient x1="1080.8491" gradientUnits="userSpaceOnUse" x2="1310.8491" y1="991.92" y2="1031.92" id="linearGradient23" spreadMethod="reflect">
        <stop stop-opacity="1" stop-color="white" offset="0%"/>
        <stop stop-opacity="1" stop-color="white" offset="100%"/>
      </linearGradient>
      <linearGradient x1="1080.8491" gradientUnits="userSpaceOnUse" x2="1310.8491" y1="1061.92" y2="1101.92" id="linearGradient24" spreadMethod="reflect">
        <stop stop-opacity="1" stop-color="white" offset="0%"/>
        <stop stop-opacity="1" stop-color="white" offset="100%"/>
      </linearGradient>
      <clipPath clipPathUnits="userSpaceOnUse" id="clipPath1">
        <path d="M0 0 L840 0 L840 920 L0 920 L0 0 Z"/>
      </clipPath>
      <clipPath clipPathUnits="userSpaceOnUse" id="clipPath2">
        <path d="M716 197 L1556 197 L1556 1117 L716 1117 L716 197 Z"/>
      </clipPath>
    </defs>
    <g fill="white" text-rendering="geometricPrecision" shape-rendering="geometricPrecision" transform="translate(-716,-197)" stroke="white">
      <rect x="716" width="840" height="920" y="197" clip-path="url(#clipPath2)" stroke="none"/>
    </g>
    <g fill="url(#linearGradient1)" text-rendering="geometricPrecision" shape-rendering="geometricPrecision" transform="matrix(1,0,0,1,-716,-197)" stroke="url(#linearGradient1)">
      <rect x="731.728" y="213" clip-path="url(#clipPath2)" width="230" rx="20" ry="20" height="40" stroke="none"/>
    </g>
    <g text-rendering="geometricPrecision" stroke-miterlimit="1.45" shape-rendering="geometricPrecision" transform="matrix(1,0,0,1,-716,-197)" stroke-linecap="butt">
      <rect x="731.728" y="213" clip-path="url(#clipPath2)" fill="none" width="230" rx="20" ry="20" height="40"/>
      <text x="825.1245" xml:space="preserve" y="236.1934" clip-path="url(#clipPath2)" font-family="sans-serif" stroke="none">Начало</text>
    </g>
    <g fill="url(#linearGradient2)" text-rendering="geometricPrecision" shape-rendering="geometricPrecision" transform="matrix(1,0,0,1,-716,-197)" stroke="url(#linearGradient2)">
      <path d="M741.728 493 L951.728 493 L961.728 503 L961.728 533 L731.728 533 L731.728 503 Z" stroke="none" clip-path="url(#clipPath2)"/>
    </g>
    <g text-rendering="geometricPrecision" stroke-miterlimit="1.45" shape-rendering="geometricPrecision" transform="matrix(1,0,0,1,-716,-197)" stroke-linecap="butt">
      <path fill="none" d="M741.728 493 L951.728 493 L961.728 503 L961.728 533 L731.728 533 L731.728 503 Z" clip-path="url(#clipPath2)"/>
      <text x="742.311" xml:space="preserve" y="516.1934" clip-path="url(#clipPath2)" font-family="sans-serif" stroke="none">Для каждой ячейки изображения</text>
    </g>
    <g fill="url(#linearGradient3)" text-rendering="geometricPrecision" shape-rendering="geometricPrecision" transform="matrix(1,0,0,1,-716,-197)" stroke="url(#linearGradient3)">
      <path d="M741.728 632 L951.728 632 L961.728 642 L961.728 672 L731.728 672 L731.728 642 Z" stroke="none" clip-path="url(#clipPath2)"/>
    </g>
    <g text-rendering="geometricPrecision" stroke-miterlimit="1.45" shape-rendering="geometricPrecision" transform="matrix(1,0,0,1,-716,-197)" stroke-linecap="butt">
      <path fill="none" d="M741.728 632 L951.728 632 L961.728 642 L961.728 672 L731.728 672 L731.728 642 Z" clip-path="url(#clipPath2)"/>
      <text x="781.9175" xml:space="preserve" y="655.1934" clip-path="url(#clipPath2)" font-family="sans-serif" stroke="none">Для N точек ячейки</text>
    </g>
    <g fill="url(#linearGradient4)" text-rendering="geometricPrecision" shape-rendering="geometricPrecision" transform="matrix(1,0,0,1,-716,-197)" stroke="url(#linearGradient4)">
      <path d="M731.728 702 L961.728 702 L961.728 742 L731.728 742 Z" stroke="none" clip-path="url(#clipPath2)"/>
    </g>
    <g text-rendering="geometricPrecision" stroke-miterlimit="1.45" shape-rendering="geometricPrecision" transform="matrix(1,0,0,1,-716,-197)" stroke-linecap="butt">
      <path fill="none" d="M731.728 702 L961.728 702 L961.728 742 L731.728 742 Z" clip-path="url(#clipPath2)"/>
      <text x="767.5151" xml:space="preserve" y="718.3965" clip-path="url(#clipPath2)" font-family="sans-serif" stroke="none">Вычисление гистограммы</text>
      <text x="771.1157" xml:space="preserve" y="731.9902" clip-path="url(#clipPath2)" font-family="sans-serif" stroke="none">по полярной диагармме</text>
    </g>
    <g fill="url(#linearGradient5)" text-rendering="geometricPrecision" shape-rendering="geometricPrecision" transform="matrix(1,0,0,1,-716,-197)" stroke="url(#linearGradient5)">
      <path d="M731.728 563 L961.728 563 L961.728 603 L731.728 603 Z" stroke="none" clip-path="url(#clipPath2)"/>
    </g>
    <g text-rendering="geometricPrecision" stroke-miterlimit="1.45" shape-rendering="geometricPrecision" transform="matrix(1,0,0,1,-716,-197)" stroke-linecap="butt">
      <path fill="none" d="M731.728 563 L961.728 563 L961.728 603 L731.728 603 Z" clip-path="url(#clipPath2)"/>
      <text x="753.1128" xml:space="preserve" y="579.3965" clip-path="url(#clipPath2)" font-family="sans-serif" stroke="none">desc_vec = массив N матриц</text>
      <text x="807.1216" xml:space="preserve" y="592.9902" clip-path="url(#clipPath2)" font-family="sans-serif" stroke="none">размера nxm</text>
    </g>
    <g fill="url(#linearGradient6)" text-rendering="geometricPrecision" shape-rendering="geometricPrecision" transform="matrix(1,0,0,1,-716,-197)" stroke="url(#linearGradient6)">
      <path d="M731.728 283 L961.728 283 L961.728 323 L731.728 323 Z" stroke="none" clip-path="url(#clipPath2)"/>
    </g>
    <g text-rendering="geometricPrecision" stroke-miterlimit="1.45" shape-rendering="geometricPrecision" transform="matrix(1,0,0,1,-716,-197)" stroke-linecap="butt">
      <path fill="none" d="M731.728 283 L961.728 283 L961.728 323 L731.728 323 Z" clip-path="url(#clipPath2)"/>
      <text x="789.1187" xml:space="preserve" y="299.3965" clip-path="url(#clipPath2)" font-family="sans-serif" stroke="none">n = высота одной</text>
      <text x="781.9175" xml:space="preserve" y="312.9902" clip-path="url(#clipPath2)" font-family="sans-serif" stroke="none">ячейки изображения</text>
    </g>
    <g fill="url(#linearGradient7)" text-rendering="geometricPrecision" shape-rendering="geometricPrecision" transform="matrix(1,0,0,1,-716,-197)" stroke="url(#linearGradient7)">
      <path d="M731.728 353 L961.728 353 L961.728 393 L731.728 393 Z" stroke="none" clip-path="url(#clipPath2)"/>
    </g>
    <g text-rendering="geometricPrecision" stroke-miterlimit="1.45" shape-rendering="geometricPrecision" transform="matrix(1,0,0,1,-716,-197)" stroke-linecap="butt">
      <path fill="none" d="M731.728 353 L961.728 353 L961.728 393 L731.728 393 Z" clip-path="url(#clipPath2)"/>
      <text x="789.1187" xml:space="preserve" y="369.3965" clip-path="url(#clipPath2)" font-family="sans-serif" stroke="none">m = ширина одной</text>
      <text x="781.9175" xml:space="preserve" y="382.9902" clip-path="url(#clipPath2)" font-family="sans-serif" stroke="none">ячейки изображения</text>
    </g>
    <g fill="url(#linearGradient8)" text-rendering="geometricPrecision" shape-rendering="geometricPrecision" transform="matrix(1,0,0,1,-716,-197)" stroke="url(#linearGradient8)">
      <path d="M731.728 772 L961.728 772 L961.728 812 L731.728 812 Z" stroke="none" clip-path="url(#clipPath2)"/>
    </g>
    <g text-rendering="geometricPrecision" stroke-miterlimit="1.45" shape-rendering="geometricPrecision" transform="matrix(1,0,0,1,-716,-197)" stroke-linecap="butt">
      <path fill="none" d="M731.728 772 L961.728 772 L961.728 812 L731.728 812 Z" clip-path="url(#clipPath2)"/>
      <text x="760.314" xml:space="preserve" y="788.3965" clip-path="url(#clipPath2)" font-family="sans-serif" stroke="none">Добавление гистограммы в</text>
      <text x="817.9233" xml:space="preserve" y="801.9902" clip-path="url(#clipPath2)" font-family="sans-serif" stroke="none">desc_vec</text>
    </g>
    <g fill="url(#linearGradient9)" text-rendering="geometricPrecision" shape-rendering="geometricPrecision" transform="matrix(1,0,0,1,-716,-197)" stroke="url(#linearGradient9)">
      <path d="M731.728 842 L961.728 842 L961.728 872 L951.728 882 L741.728 882 L731.728 872 Z" stroke="none" clip-path="url(#clipPath2)"/>
    </g>
    <g text-rendering="geometricPrecision" stroke-miterlimit="1.45" shape-rendering="geometricPrecision" transform="matrix(1,0,0,1,-716,-197)" stroke-linecap="butt">
      <path fill="none" d="M731.728 842 L961.728 842 L961.728 872 L951.728 882 L741.728 882 L731.728 872 Z" clip-path="url(#clipPath2)"/>
      <text x="771.1157" xml:space="preserve" y="865.1934" clip-path="url(#clipPath2)" font-family="sans-serif" stroke="none">Конец цикла по точкам</text>
    </g>
    <g fill="url(#linearGradient10)" text-rendering="geometricPrecision" shape-rendering="geometricPrecision" transform="matrix(1,0,0,1,-716,-197)" stroke="url(#linearGradient10)">
      <path d="M1090.8491 272.08 L1300.8491 272.08 L1310.8491 282.08 L1310.8491 312.08 L1080.8491 312.08 L1080.8491 282.08 Z" stroke="none" clip-path="url(#clipPath2)"/>
    </g>
    <g text-rendering="geometricPrecision" stroke-miterlimit="1.45" shape-rendering="geometricPrecision" transform="matrix(1,0,0,1,-716,-197)" stroke-linecap="butt">
      <path fill="none" d="M1090.8491 272.08 L1300.8491 272.08 L1310.8491 282.08 L1310.8491 312.08 L1080.8491 312.08 L1080.8491 282.08 Z" clip-path="url(#clipPath2)"/>
      <text x="1116.6362" xml:space="preserve" y="288.4765" clip-path="url(#clipPath2)" font-family="sans-serif" stroke="none">Для каждого доступного</text>
      <text x="1152.6421" xml:space="preserve" y="302.0702" clip-path="url(#clipPath2)" font-family="sans-serif" stroke="none">символа symb</text>
    </g>
    <g fill="url(#linearGradient11)" text-rendering="geometricPrecision" shape-rendering="geometricPrecision" transform="matrix(1,0,0,1,-716,-197)" stroke="url(#linearGradient11)">
      <path d="M1090.8491 412.08 L1300.8491 412.08 L1310.8491 422.08 L1310.8491 452.08 L1080.8491 452.08 L1080.8491 422.08 Z" stroke="none" clip-path="url(#clipPath2)"/>
    </g>
    <g text-rendering="geometricPrecision" stroke-miterlimit="1.45" shape-rendering="geometricPrecision" transform="matrix(1,0,0,1,-716,-197)" stroke-linecap="butt">
      <path fill="none" d="M1090.8491 412.08 L1300.8491 412.08 L1310.8491 422.08 L1310.8491 452.08 L1080.8491 452.08 L1080.8491 422.08 Z" clip-path="url(#clipPath2)"/>
      <text x="1127.438" xml:space="preserve" y="435.2733" clip-path="url(#clipPath2)" font-family="sans-serif" stroke="none">Цикл по i от 0 до N</text>
    </g>
    <g fill="url(#linearGradient12)" text-rendering="geometricPrecision" shape-rendering="geometricPrecision" transform="matrix(1,0,0,1,-716,-197)" stroke="url(#linearGradient12)">
      <path d="M1080.8491 482.08 L1310.8491 482.08 L1310.8491 522.08 L1080.8491 522.08 Z" stroke="none" clip-path="url(#clipPath2)"/>
    </g>
    <g text-rendering="geometricPrecision" stroke-miterlimit="1.45" shape-rendering="geometricPrecision" transform="matrix(1,0,0,1,-716,-197)" stroke-linecap="butt">
      <path fill="none" d="M1080.8491 482.08 L1310.8491 482.08 L1310.8491 522.08 L1080.8491 522.08 Z" clip-path="url(#clipPath2)"/>
      <text x="1156.2427" xml:space="preserve" y="498.4765" clip-path="url(#clipPath2)" font-family="sans-serif" stroke="none">sum = sum +</text>
      <text x="1105.8345" xml:space="preserve" y="512.0703" clip-path="url(#clipPath2)" font-family="sans-serif" stroke="none">||desk_vec[i] - symb[i]||</text>
    </g>
    <g fill="url(#linearGradient13)" text-rendering="geometricPrecision" shape-rendering="geometricPrecision" transform="matrix(1,0,0,1,-716,-197)" stroke="url(#linearGradient13)">
      <path d="M1080.8491 342.08 L1310.8491 342.08 L1310.8491 382.08 L1080.8491 382.08 Z" stroke="none" clip-path="url(#clipPath2)"/>
    </g>
    <g text-rendering="geometricPrecision" stroke-miterlimit="1.45" shape-rendering="geometricPrecision" transform="matrix(1,0,0,1,-716,-197)" stroke-linecap="butt">
      <path fill="none" d="M1080.8491 342.08 L1310.8491 342.08 L1310.8491 382.08 L1080.8491 382.08 Z" clip-path="url(#clipPath2)"/>
      <text x="1170.645" xml:space="preserve" y="365.2733" clip-path="url(#clipPath2)" font-family="sans-serif" stroke="none">sum = 0</text>
    </g>
    <g fill="url(#linearGradient14)" text-rendering="geometricPrecision" shape-rendering="geometricPrecision" transform="matrix(1,0,0,1,-716,-197)" stroke="url(#linearGradient14)">
      <path d="M1080.8491 552.08 L1310.8491 552.08 L1310.8491 582.08 L1300.8491 592.08 L1090.8491 592.08 L1080.8491 582.08 Z" stroke="none" clip-path="url(#clipPath2)"/>
    </g>
    <g text-rendering="geometricPrecision" stroke-miterlimit="1.45" shape-rendering="geometricPrecision" transform="matrix(1,0,0,1,-716,-197)" stroke-linecap="butt">
      <path fill="none" d="M1080.8491 552.08 L1310.8491 552.08 L1310.8491 582.08 L1300.8491 592.08 L1090.8491 592.08 L1080.8491 582.08 Z" clip-path="url(#clipPath2)"/>
      <text x="1138.2397" xml:space="preserve" y="575.2734" clip-path="url(#clipPath2)" font-family="sans-serif" stroke="none">Конец цикла по i</text>
    </g>
    <g fill="url(#linearGradient15)" text-rendering="geometricPrecision" shape-rendering="geometricPrecision" transform="matrix(1,0,0,1,-716,-197)" stroke="url(#linearGradient15)">
      <path d="M731.728 912 L961.728 912 L961.728 952 L731.728 952 Z" stroke="none" clip-path="url(#clipPath2)"/>
    </g>
    <g text-rendering="geometricPrecision" stroke-miterlimit="1.45" shape-rendering="geometricPrecision" transform="matrix(1,0,0,1,-716,-197)" stroke-linecap="butt">
      <path fill="none" d="M731.728 912 L961.728 912 L961.728 952 L731.728 952 Z" clip-path="url(#clipPath2)"/>
      <text x="799.9204" xml:space="preserve" y="935.1934" clip-path="url(#clipPath2)" font-family="sans-serif" stroke="none">min_delt = +∞</text>
    </g>
    <g fill="url(#linearGradient16)" text-rendering="geometricPrecision" shape-rendering="geometricPrecision" transform="matrix(1,0,0,1,-716,-197)" stroke="url(#linearGradient16)">
      <path d="M1195.8491 622.08 L1310.8491 652 L1195.8491 681.92 L1080.8491 652 Z" stroke="none" clip-path="url(#clipPath2)"/>
    </g>
    <g text-rendering="geometricPrecision" stroke-miterlimit="1.45" shape-rendering="geometricPrecision" transform="matrix(1,0,0,1,-716,-197)" stroke-linecap="butt">
      <path fill="none" d="M1195.8491 622.08 L1310.8491 652 L1195.8491 681.92 L1080.8491 652 Z" clip-path="url(#clipPath2)"/>
      <text x="1145.4409" xml:space="preserve" y="655.1934" clip-path="url(#clipPath2)" font-family="sans-serif" stroke="none">sum &lt; min_delt</text>
    </g>
    <g fill="url(#linearGradient17)" text-rendering="geometricPrecision" shape-rendering="geometricPrecision" transform="matrix(1,0,0,1,-716,-197)" stroke="url(#linearGradient17)">
      <path d="M1310.8491 711.92 L1540.8491 711.92 L1540.8491 751.92 L1310.8491 751.92 Z" stroke="none" clip-path="url(#clipPath2)"/>
    </g>
    <g text-rendering="geometricPrecision" stroke-miterlimit="1.45" shape-rendering="geometricPrecision" transform="matrix(1,0,0,1,-716,-197)" stroke-linecap="butt">
      <path fill="none" d="M1310.8491 711.92 L1540.8491 711.92 L1540.8491 751.92 L1310.8491 751.92 Z" clip-path="url(#clipPath2)"/>
      <text x="1375.4409" xml:space="preserve" y="728.3165" clip-path="url(#clipPath2)" font-family="sans-serif" stroke="none">min_delt = sum</text>
      <text x="1371.8403" xml:space="preserve" y="741.9102" clip-path="url(#clipPath2)" font-family="sans-serif" stroke="none">min_symb = symb</text>
    </g>
    <g fill="url(#linearGradient18)" text-rendering="geometricPrecision" shape-rendering="geometricPrecision" transform="matrix(1,0,0,1,-716,-197)" stroke="url(#linearGradient18)">
      <path d="M1080.8491 781.92 L1310.8491 781.92 L1310.8491 811.92 L1300.8491 821.92 L1090.8491 821.92 L1080.8491 811.92 Z" stroke="none" clip-path="url(#clipPath2)"/>
    </g>
    <g text-rendering="geometricPrecision" stroke-miterlimit="1.45" shape-rendering="geometricPrecision" transform="matrix(1,0,0,1,-716,-197)" stroke-linecap="butt">
      <path fill="none" d="M1080.8491 781.92 L1310.8491 781.92 L1310.8491 811.92 L1300.8491 821.92 L1090.8491 821.92 L1080.8491 811.92 Z" clip-path="url(#clipPath2)"/>
      <text x="1127.438" xml:space="preserve" y="805.1133" clip-path="url(#clipPath2)" font-family="sans-serif" stroke="none">Конец цикла по symb</text>
    </g>
    <g fill="url(#linearGradient19)" text-rendering="geometricPrecision" shape-rendering="geometricPrecision" transform="matrix(1,0,0,1,-716,-197)" stroke="url(#linearGradient19)">
      <path d="M731.728 982 L961.728 982 L961.728 1022 L731.728 1022 Z" stroke="none" clip-path="url(#clipPath2)"/>
    </g>
    <g text-rendering="geometricPrecision" stroke-miterlimit="1.45" shape-rendering="geometricPrecision" transform="matrix(1,0,0,1,-716,-197)" stroke-linecap="butt">
      <path fill="none" d="M731.728 982 L961.728 982 L961.728 1022 L731.728 1022 Z" clip-path="url(#clipPath2)"/>
      <text x="792.7192" xml:space="preserve" y="1005.1934" clip-path="url(#clipPath2)" font-family="sans-serif" stroke="none">min_symb = null</text>
    </g>
    <g fill="url(#linearGradient20)" text-rendering="geometricPrecision" shape-rendering="geometricPrecision" transform="matrix(1,0,0,1,-716,-197)" stroke="url(#linearGradient20)">
      <path d="M731.728 423 L961.728 423 L961.728 463 L731.728 463 Z" stroke="none" clip-path="url(#clipPath2)"/>
    </g>
    <g text-rendering="geometricPrecision" stroke-miterlimit="1.45" shape-rendering="geometricPrecision" transform="matrix(1,0,0,1,-716,-197)" stroke-linecap="butt">
      <path fill="none" d="M731.728 423 L961.728 423 L961.728 463 L731.728 463 Z" clip-path="url(#clipPath2)"/>
      <text x="771.1157" xml:space="preserve" y="432.5996" clip-path="url(#clipPath2)" font-family="sans-serif" stroke="none">canvas = матрица XxY,</text>
      <text x="792.7192" xml:space="preserve" y="446.1934" clip-path="url(#clipPath2)" font-family="sans-serif" stroke="none">соответствующая</text>
      <text x="778.3169" xml:space="preserve" y="459.7871" clip-path="url(#clipPath2)" font-family="sans-serif" stroke="none">ячейкам изображения</text>
    </g>
    <g fill="url(#linearGradient21)" text-rendering="geometricPrecision" shape-rendering="geometricPrecision" transform="matrix(1,0,0,1,-716,-197)" stroke="url(#linearGradient21)">
      <path d="M1080.8491 851.92 L1310.8491 851.92 L1310.8491 891.92 L1080.8491 891.92 Z" stroke="none" clip-path="url(#clipPath2)"/>
    </g>
    <g text-rendering="geometricPrecision" stroke-miterlimit="1.45" shape-rendering="geometricPrecision" transform="matrix(1,0,0,1,-716,-197)" stroke-linecap="butt">
      <path fill="none" d="M1080.8491 851.92 L1310.8491 851.92 L1310.8491 891.92 L1080.8491 891.92 Z" clip-path="url(#clipPath2)"/>
      <text x="1116.6362" xml:space="preserve" y="875.1133" clip-path="url(#clipPath2)" font-family="sans-serif" stroke="none">canvas(x,y) = min_symb</text>
    </g>
    <g fill="url(#linearGradient22)" text-rendering="geometricPrecision" shape-rendering="geometricPrecision" transform="matrix(1,0,0,1,-716,-197)" stroke="url(#linearGradient22)">
      <path d="M1080.8491 921.92 L1310.8491 921.92 L1310.8491 951.92 L1300.8491 961.92 L1090.8491 961.92 L1080.8491 951.92 Z" stroke="none" clip-path="url(#clipPath2)"/>
    </g>
    <g text-rendering="geometricPrecision" stroke-miterlimit="1.45" shape-rendering="geometricPrecision" transform="matrix(1,0,0,1,-716,-197)" stroke-linecap="butt">
      <path fill="none" d="M1080.8491 921.92 L1310.8491 921.92 L1310.8491 951.92 L1300.8491 961.92 L1090.8491 961.92 L1080.8491 951.92 Z" clip-path="url(#clipPath2)"/>
      <text x="1116.6362" xml:space="preserve" y="945.1133" clip-path="url(#clipPath2)" font-family="sans-serif" stroke="none">Конец цикла по ячейкам</text>
    </g>
    <g fill="url(#linearGradient23)" text-rendering="geometricPrecision" shape-rendering="geometricPrecision" transform="matrix(1,0,0,1,-716,-197)" stroke="url(#linearGradient23)">
      <path d="M1091.0491 991.92 L1310.8491 991.92 L1300.649 1031.92 L1080.8491 1031.92 Z" stroke="none" clip-path="url(#clipPath2)"/>
    </g>
    <g text-rendering="geometricPrecision" stroke-miterlimit="1.45" shape-rendering="geometricPrecision" transform="matrix(1,0,0,1,-716,-197)" stroke-linecap="butt">
      <path fill="none" d="M1091.0491 991.92 L1310.8491 991.92 L1300.649 1031.92 L1080.8491 1031.92 Z" clip-path="url(#clipPath2)"/>
      <text x="1145.4409" xml:space="preserve" y="1015.1133" clip-path="url(#clipPath2)" font-family="sans-serif" stroke="none">Возврат canvas</text>
    </g>
    <g fill="url(#linearGradient24)" text-rendering="geometricPrecision" shape-rendering="geometricPrecision" transform="matrix(1,0,0,1,-716,-197)" stroke="url(#linearGradient24)">
      <rect x="1080.8491" y="1061.92" clip-path="url(#clipPath2)" width="230" rx="20" ry="20" height="40" stroke="none"/>
    </g>
    <g text-rendering="geometricPrecision" stroke-miterlimit="1.45" shape-rendering="geometricPrecision" transform="matrix(1,0,0,1,-716,-197)" stroke-linecap="butt">
      <rect x="1080.8491" y="1061.92" clip-path="url(#clipPath2)" fill="none" width="230" rx="20" ry="20" height="40"/>
      <text x="1177.8462" xml:space="preserve" y="1085.1134" clip-path="url(#clipPath2)" font-family="sans-serif" stroke="none">Конец</text>
    </g>
    <g text-rendering="geometricPrecision" stroke-miterlimit="1.45" shape-rendering="geometricPrecision" transform="matrix(1,0,0,1,-716,-197)" stroke-linecap="butt">
      <circle fill="none" r="15" clip-path="url(#clipPath2)" cx="846.728" cy="1067"/>
    </g>
    <g text-rendering="geometricPrecision" stroke-miterlimit="1.45" shape-rendering="geometricPrecision" font-family="sans-serif" transform="matrix(1,0,0,1,-716,-197)" stroke-linecap="butt">
      <text x="843.1274" xml:space="preserve" y="1070.1934" clip-path="url(#clipPath2)" stroke="none">А</text>
      <circle fill="none" r="15" clip-path="url(#clipPath2)" cx="1195.8491" cy="227.08"/>
      <text x="1192.2485" xml:space="preserve" y="230.2734" clip-path="url(#clipPath2)" stroke="none">А</text>
      <path fill="none" d="M846.728 671.9951 L846.728 694.0273" clip-path="url(#clipPath2)"/>
      <path d="M846.728 702.0273 L851.728 690.0273 L846.728 693.0273 L841.728 690.0273 Z" clip-path="url(#clipPath2)" stroke="none"/>
      <path fill="none" d="M846.728 532.9951 L846.728 555.0273" clip-path="url(#clipPath2)"/>
      <path d="M846.728 563.0273 L851.728 551.0273 L846.728 554.0273 L841.728 551.0273 Z" clip-path="url(#clipPath2)" stroke="none"/>
      <path fill="none" d="M846.728 602.979 L846.728 624.0374" clip-path="url(#clipPath2)"/>
      <path d="M846.728 632.0374 L851.728 620.0374 L846.728 623.0374 L841.728 620.0374 Z" clip-path="url(#clipPath2)" stroke="none"/>
      <path fill="none" d="M846.728 252.9951 L846.728 275.0273" clip-path="url(#clipPath2)"/>
      <path d="M846.728 283.0273 L851.728 271.0273 L846.728 274.0273 L841.728 271.0273 Z" clip-path="url(#clipPath2)" stroke="none"/>
      <path fill="none" d="M846.728 322.9951 L846.728 345.0273" clip-path="url(#clipPath2)"/>
      <path d="M846.728 353.0273 L851.728 341.0273 L846.728 344.0273 L841.728 341.0273 Z" clip-path="url(#clipPath2)" stroke="none"/>
      <path fill="none" d="M846.728 741.9951 L846.728 764.0273" clip-path="url(#clipPath2)"/>
      <path d="M846.728 772.0273 L851.728 760.0273 L846.728 763.0273 L841.728 760.0273 Z" clip-path="url(#clipPath2)" stroke="none"/>
      <path fill="none" d="M846.728 811.9951 L846.728 834.0273" clip-path="url(#clipPath2)"/>
      <path d="M846.728 842.0273 L851.728 830.0273 L846.728 833.0273 L841.728 830.0273 Z" clip-path="url(#clipPath2)" stroke="none"/>
      <path fill="none" d="M1195.8491 452.0751 L1195.8491 474.1074" clip-path="url(#clipPath2)"/>
      <path d="M1195.8491 482.1074 L1200.8491 470.1074 L1195.8491 473.1074 L1190.8491 470.1074 Z" clip-path="url(#clipPath2)" stroke="none"/>
      <path fill="none" d="M1195.8491 312.0751 L1195.8491 334.1074" clip-path="url(#clipPath2)"/>
      <path d="M1195.8491 342.1074 L1200.8491 330.1074 L1195.8491 333.1074 L1190.8491 330.1074 Z" clip-path="url(#clipPath2)" stroke="none"/>
      <path fill="none" d="M1195.8491 382.0751 L1195.8491 404.1074" clip-path="url(#clipPath2)"/>
      <path d="M1195.8491 412.1074 L1200.8491 400.1074 L1195.8491 403.1074 L1190.8491 400.1074 Z" clip-path="url(#clipPath2)" stroke="none"/>
      <path fill="none" d="M1195.8491 522.0751 L1195.8491 544.1074" clip-path="url(#clipPath2)"/>
      <path d="M1195.8491 552.1074 L1200.8491 540.1074 L1195.8491 543.1074 L1190.8491 540.1074 Z" clip-path="url(#clipPath2)" stroke="none"/>
      <path fill="none" d="M846.728 881.9951 L846.728 904.0273" clip-path="url(#clipPath2)"/>
      <path d="M846.728 912.0273 L851.728 900.0273 L846.728 903.0273 L841.728 900.0273 Z" clip-path="url(#clipPath2)" stroke="none"/>
      <path fill="none" d="M1195.8491 592.099 L1195.8491 614.0787" clip-path="url(#clipPath2)"/>
      <path d="M1195.8491 622.0787 L1200.8491 610.0787 L1195.8491 613.0787 L1190.8491 610.0787 Z" clip-path="url(#clipPath2)" stroke="none"/>
      <path fill="none" d="M1310.8772 652 L1425.8491 652 L1425.8491 703.901" clip-path="url(#clipPath2)"/>
      <path d="M1425.8491 711.901 L1430.8491 699.901 L1425.8491 702.901 L1420.8491 699.901 Z" clip-path="url(#clipPath2)" stroke="none"/>
      <text x="1334.3285" xml:space="preserve" y="647.4333" clip-path="url(#clipPath2)" stroke="none">Да</text>
      <path fill="none" d="M1425.8491 751.8997 L1425.8491 762.32 L1195.8491 762.32 L1195.8491 773.9266" clip-path="url(#clipPath2)"/>
      <path d="M1195.8491 781.9266 L1200.8491 769.9266 L1195.8491 772.9266 L1190.8491 769.9266 Z" clip-path="url(#clipPath2)" stroke="none"/>
      <path fill="none" d="M1195.8491 681.9035 L1195.8491 773.9075" clip-path="url(#clipPath2)"/>
      <path d="M1195.8491 781.9075 L1200.8491 769.9075 L1195.8491 772.9075 L1190.8491 769.9075 Z" clip-path="url(#clipPath2)" stroke="none"/>
      <path fill="none" d="M846.728 951.9951 L846.728 974.0273" clip-path="url(#clipPath2)"/>
      <path d="M846.728 982.0273 L851.728 970.0273 L846.728 973.0273 L841.728 970.0273 Z" clip-path="url(#clipPath2)" stroke="none"/>
      <path fill="none" d="M846.728 392.9951 L846.728 415.0273" clip-path="url(#clipPath2)"/>
      <path d="M846.728 423.0273 L851.728 411.0273 L846.728 414.0273 L841.728 411.0273 Z" clip-path="url(#clipPath2)" stroke="none"/>
      <path fill="none" d="M846.728 462.9951 L846.728 485.0273" clip-path="url(#clipPath2)"/>
      <path d="M846.728 493.0273 L851.728 481.0273 L846.728 484.0273 L841.728 481.0273 Z" clip-path="url(#clipPath2)" stroke="none"/>
      <path fill="none" d="M1195.8491 821.9151 L1195.8491 843.9473" clip-path="url(#clipPath2)"/>
      <path d="M1195.8491 851.9473 L1200.8491 839.9473 L1195.8491 842.9473 L1190.8491 839.9473 Z" clip-path="url(#clipPath2)" stroke="none"/>
      <path fill="none" d="M1195.8491 891.9151 L1195.8491 913.9473" clip-path="url(#clipPath2)"/>
      <path d="M1195.8491 921.9473 L1200.8491 909.9473 L1195.8491 912.9473 L1190.8491 909.9473 Z" clip-path="url(#clipPath2)" stroke="none"/>
      <path fill="none" d="M1195.8491 961.9151 L1195.8491 983.9473" clip-path="url(#clipPath2)"/>
      <path d="M1195.8491 991.9473 L1200.8491 979.9473 L1195.8491 982.9473 L1190.8491 979.9473 Z" clip-path="url(#clipPath2)" stroke="none"/>
      <path fill="none" d="M1195.8491 1031.9152 L1195.8491 1053.9474" clip-path="url(#clipPath2)"/>
      <path d="M1195.8491 1061.9474 L1200.8491 1049.9474 L1195.8491 1052.9474 L1190.8491 1049.9474 Z" clip-path="url(#clipPath2)" stroke="none"/>
      <path fill="none" d="M846.728 1022.0269 L846.728 1044" clip-path="url(#clipPath2)"/>
      <path d="M846.728 1052 L851.728 1040 L846.728 1043 L841.728 1040 Z" clip-path="url(#clipPath2)" stroke="none"/>
      <path fill="none" d="M1195.8491 242.08 L1195.8491 264.1093" clip-path="url(#clipPath2)"/>
      <path d="M1195.8491 272.1093 L1200.8491 260.1093 L1195.8491 263.1093 L1190.8491 260.1093 Z" clip-path="url(#clipPath2)" stroke="none"/>
    </g>
  </g>
</svg>
