<?xml version="1.0" encoding="UTF-8"?><svg xmlns="http://www.w3.org/2000/svg" xmlns:xlink="http://www.w3.org/1999/xlink" fill-opacity="1" color-rendering="auto" color-interpolation="auto" text-rendering="auto" stroke="black" stroke-linecap="square" width="261" stroke-miterlimit="10" shape-rendering="auto" stroke-opacity="1" fill="black" stroke-dasharray="none" font-weight="normal" stroke-width="1" height="399" font-family="'Dialog'" font-style="normal" stroke-linejoin="miter" font-size="12px" stroke-dashoffset="0" image-rendering="auto">
  <!--Generated by ySVG 2.6-->
  <defs id="genericDefs"/>
  <g>
    <defs id="defs1">
      <linearGradient x1="769.576" gradientUnits="userSpaceOnUse" x2="999.576" y1="175" y2="215" id="linearGradient1" spreadMethod="reflect">
        <stop stop-opacity="1" stop-color="white" offset="0%"/>
        <stop stop-opacity="1" stop-color="white" offset="100%"/>
      </linearGradient>
      <linearGradient x1="769.576" gradientUnits="userSpaceOnUse" x2="999.576" y1="239.546" y2="279.546" id="linearGradient2" spreadMethod="reflect">
        <stop stop-opacity="1" stop-color="white" offset="0%"/>
        <stop stop-opacity="1" stop-color="white" offset="100%"/>
      </linearGradient>
      <linearGradient x1="769.576" gradientUnits="userSpaceOnUse" x2="999.576" y1="304.092" y2="344.092" id="linearGradient3" spreadMethod="reflect">
        <stop stop-opacity="1" stop-color="white" offset="0%"/>
        <stop stop-opacity="1" stop-color="white" offset="100%"/>
      </linearGradient>
      <linearGradient x1="769.576" gradientUnits="userSpaceOnUse" x2="999.576" y1="368.6381" y2="408.6381" id="linearGradient4" spreadMethod="reflect">
        <stop stop-opacity="1" stop-color="white" offset="0%"/>
        <stop stop-opacity="1" stop-color="white" offset="100%"/>
      </linearGradient>
      <linearGradient x1="769.576" gradientUnits="userSpaceOnUse" x2="999.576" y1="433.1841" y2="473.1841" id="linearGradient5" spreadMethod="reflect">
        <stop stop-opacity="1" stop-color="white" offset="0%"/>
        <stop stop-opacity="1" stop-color="white" offset="100%"/>
      </linearGradient>
      <linearGradient x1="769.576" gradientUnits="userSpaceOnUse" x2="999.576" y1="503.1841" y2="543.1841" id="linearGradient6" spreadMethod="reflect">
        <stop stop-opacity="1" stop-color="white" offset="0%"/>
        <stop stop-opacity="1" stop-color="white" offset="100%"/>
      </linearGradient>
      <clipPath clipPathUnits="userSpaceOnUse" id="clipPath1">
        <path d="M0 0 L261 0 L261 399 L0 399 L0 0 Z"/>
      </clipPath>
      <clipPath clipPathUnits="userSpaceOnUse" id="clipPath2">
        <path d="M754 160 L1015 160 L1015 559 L754 559 L754 160 Z"/>
      </clipPath>
    </defs>
    <g fill="white" text-rendering="geometricPrecision" shape-rendering="geometricPrecision" transform="translate(-754,-160)" stroke="white">
      <rect x="754" width="261" height="399" y="160" clip-path="url(#clipPath2)" stroke="none"/>
    </g>
    <g fill="url(#linearGradient1)" text-rendering="geometricPrecision" shape-rendering="geometricPrecision" transform="matrix(1,0,0,1,-754,-160)" stroke="url(#linearGradient1)">
      <rect x="769.576" y="175" clip-path="url(#clipPath2)" width="230" rx="20" ry="20" height="40" stroke="none"/>
    </g>
    <g text-rendering="geometricPrecision" stroke-miterlimit="1.45" shape-rendering="geometricPrecision" transform="matrix(1,0,0,1,-754,-160)" stroke-linecap="butt">
      <rect x="769.576" y="175" clip-path="url(#clipPath2)" fill="none" width="230" rx="20" ry="20" height="40"/>
      <text x="862.9725" xml:space="preserve" y="198.1934" clip-path="url(#clipPath2)" font-family="sans-serif" stroke="none">Начало</text>
    </g>
    <g fill="url(#linearGradient2)" text-rendering="geometricPrecision" shape-rendering="geometricPrecision" transform="matrix(1,0,0,1,-754,-160)" stroke="url(#linearGradient2)">
      <path d="M769.576 239.546 L999.576 239.546 L999.576 279.546 L769.576 279.546 Z" stroke="none" clip-path="url(#clipPath2)"/>
    </g>
    <g text-rendering="geometricPrecision" stroke-miterlimit="1.45" shape-rendering="geometricPrecision" transform="matrix(1,0,0,1,-754,-160)" stroke-linecap="butt">
      <path fill="none" d="M769.576 239.546 L999.576 239.546 L999.576 279.546 L769.576 279.546 Z" clip-path="url(#clipPath2)"/>
      <text x="830.5672" xml:space="preserve" y="255.9425" clip-path="url(#clipPath2)" font-family="sans-serif" stroke="none">Задание текущих</text>
      <text x="823.366" xml:space="preserve" y="269.5363" clip-path="url(#clipPath2)" font-family="sans-serif" stroke="none">нормалей к граням</text>
    </g>
    <g fill="url(#linearGradient3)" text-rendering="geometricPrecision" shape-rendering="geometricPrecision" transform="matrix(1,0,0,1,-754,-160)" stroke="url(#linearGradient3)">
      <path d="M769.576 304.092 L999.576 304.092 L999.576 344.092 L769.576 344.092 Z" stroke="none" clip-path="url(#clipPath2)"/>
    </g>
    <g text-rendering="geometricPrecision" stroke-miterlimit="1.45" shape-rendering="geometricPrecision" transform="matrix(1,0,0,1,-754,-160)" stroke-linecap="butt">
      <path fill="none" d="M769.576 304.092 L999.576 304.092 L999.576 344.092 L769.576 344.092 Z" clip-path="url(#clipPath2)"/>
      <text x="801.7625" xml:space="preserve" y="320.4885" clip-path="url(#clipPath2)" font-family="sans-serif" stroke="none">Вычислить интенсивности</text>
      <text x="823.366" xml:space="preserve" y="334.0823" clip-path="url(#clipPath2)" font-family="sans-serif" stroke="none">в вершинах граней</text>
    </g>
    <g fill="url(#linearGradient4)" text-rendering="geometricPrecision" shape-rendering="geometricPrecision" transform="matrix(1,0,0,1,-754,-160)" stroke="url(#linearGradient4)">
      <path d="M769.576 368.6381 L999.576 368.6381 L999.576 408.6381 L769.576 408.6381 Z" stroke="none" clip-path="url(#clipPath2)"/>
    </g>
    <g text-rendering="geometricPrecision" stroke-miterlimit="1.45" shape-rendering="geometricPrecision" transform="matrix(1,0,0,1,-754,-160)" stroke-linecap="butt">
      <path fill="none" d="M769.576 368.6381 L999.576 368.6381 L999.576 408.6381 L769.576 408.6381 Z" clip-path="url(#clipPath2)"/>
      <text x="776.5584" xml:space="preserve" y="385.0345" clip-path="url(#clipPath2)" font-family="sans-serif" stroke="none">Провести линейную интерполяцию</text>
      <text x="794.5613" xml:space="preserve" y="398.6283" clip-path="url(#clipPath2)" font-family="sans-serif" stroke="none">интенсивности вдоль ребер</text>
    </g>
    <g fill="url(#linearGradient5)" text-rendering="geometricPrecision" shape-rendering="geometricPrecision" transform="matrix(1,0,0,1,-754,-160)" stroke="url(#linearGradient5)">
      <path d="M769.576 433.1841 L999.576 433.1841 L999.576 473.1841 L769.576 473.1841 Z" stroke="none" clip-path="url(#clipPath2)"/>
    </g>
    <g text-rendering="geometricPrecision" stroke-miterlimit="1.45" shape-rendering="geometricPrecision" transform="matrix(1,0,0,1,-754,-160)" stroke-linecap="butt">
      <path fill="none" d="M769.576 433.1841 L999.576 433.1841 L999.576 473.1841 L769.576 473.1841 Z" clip-path="url(#clipPath2)"/>
      <text x="776.5584" xml:space="preserve" y="442.7837" clip-path="url(#clipPath2)" font-family="sans-serif" stroke="none">Провести линейную интерполяцию</text>
      <text x="816.1649" xml:space="preserve" y="456.3774" clip-path="url(#clipPath2)" font-family="sans-serif" stroke="none">интенсивности вдоль</text>
      <text x="823.366" xml:space="preserve" y="469.9712" clip-path="url(#clipPath2)" font-family="sans-serif" stroke="none">сканирующих строк</text>
    </g>
    <g fill="url(#linearGradient6)" text-rendering="geometricPrecision" shape-rendering="geometricPrecision" transform="matrix(1,0,0,1,-754,-160)" stroke="url(#linearGradient6)">
      <rect x="769.576" y="503.1841" clip-path="url(#clipPath2)" width="230" rx="20" ry="20" height="40" stroke="none"/>
    </g>
    <g text-rendering="geometricPrecision" stroke-miterlimit="1.45" shape-rendering="geometricPrecision" transform="matrix(1,0,0,1,-754,-160)" stroke-linecap="butt">
      <rect x="769.576" y="503.1841" clip-path="url(#clipPath2)" fill="none" width="230" rx="20" ry="20" height="40"/>
      <text x="866.5731" xml:space="preserve" y="526.3774" clip-path="url(#clipPath2)" font-family="sans-serif" stroke="none">Конец</text>
    </g>
    <g text-rendering="geometricPrecision" stroke-miterlimit="1.45" shape-rendering="geometricPrecision" transform="matrix(1,0,0,1,-754,-160)" stroke-linecap="butt">
      <path fill="none" d="M884.576 215.013 L884.576 231.5845" clip-path="url(#clipPath2)"/>
    </g>
    <g text-rendering="geometricPrecision" stroke-miterlimit="1.45" shape-rendering="geometricPrecision" transform="matrix(1,0,0,1,-754,-160)" stroke-linecap="butt">
      <path d="M884.576 239.5845 L889.576 227.5845 L884.576 230.5845 L879.576 227.5845 Z" stroke="none" clip-path="url(#clipPath2)"/>
      <path fill="none" d="M884.576 279.5591 L884.576 296.1305" clip-path="url(#clipPath2)"/>
      <path d="M884.576 304.1305 L889.576 292.1305 L884.576 295.1305 L879.576 292.1305 Z" clip-path="url(#clipPath2)" stroke="none"/>
      <path fill="none" d="M884.576 344.1051 L884.576 360.6765" clip-path="url(#clipPath2)"/>
      <path d="M884.576 368.6765 L889.576 356.6765 L884.576 359.6765 L879.576 356.6765 Z" clip-path="url(#clipPath2)" stroke="none"/>
      <path fill="none" d="M884.576 408.6511 L884.576 425.2225" clip-path="url(#clipPath2)"/>
      <path d="M884.576 433.2225 L889.576 421.2225 L884.576 424.2225 L879.576 421.2225 Z" clip-path="url(#clipPath2)" stroke="none"/>
      <path fill="none" d="M884.576 473.1792 L884.576 495.2114" clip-path="url(#clipPath2)"/>
      <path d="M884.576 503.2114 L889.576 491.2114 L884.576 494.2114 L879.576 491.2114 Z" clip-path="url(#clipPath2)" stroke="none"/>
    </g>
  </g>
</svg>
