<?xml version="1.0" encoding="UTF-8"?><svg xmlns="http://www.w3.org/2000/svg" xmlns:xlink="http://www.w3.org/1999/xlink" fill-opacity="1" color-rendering="auto" color-interpolation="auto" text-rendering="auto" stroke="black" stroke-linecap="square" width="491" stroke-miterlimit="10" shape-rendering="auto" stroke-opacity="1" fill="black" stroke-dasharray="none" font-weight="normal" stroke-width="1" height="913" font-family="'Dialog'" font-style="normal" stroke-linejoin="miter" font-size="12px" stroke-dashoffset="0" image-rendering="auto">
  <!--Generated by ySVG 2.6-->
  <defs id="genericDefs"/>
  <g>
    <defs id="defs1">
      <linearGradient x1="744.288" gradientUnits="userSpaceOnUse" x2="974.288" y1="149.5" y2="189.5" id="linearGradient1" spreadMethod="reflect">
        <stop stop-opacity="1" stop-color="white" offset="0%"/>
        <stop stop-opacity="1" stop-color="white" offset="100%"/>
      </linearGradient>
      <linearGradient x1="744.288" gradientUnits="userSpaceOnUse" x2="974.288" y1="214.046" y2="254.046" id="linearGradient2" spreadMethod="reflect">
        <stop stop-opacity="1" stop-color="white" offset="0%"/>
        <stop stop-opacity="1" stop-color="white" offset="100%"/>
      </linearGradient>
      <linearGradient x1="744.288" gradientUnits="userSpaceOnUse" x2="974.288" y1="278.592" y2="318.592" id="linearGradient3" spreadMethod="reflect">
        <stop stop-opacity="1" stop-color="white" offset="0%"/>
        <stop stop-opacity="1" stop-color="white" offset="100%"/>
      </linearGradient>
      <linearGradient x1="744.288" gradientUnits="userSpaceOnUse" x2="974.288" y1="343.1381" y2="383.1381" id="linearGradient4" spreadMethod="reflect">
        <stop stop-opacity="1" stop-color="white" offset="0%"/>
        <stop stop-opacity="1" stop-color="white" offset="100%"/>
      </linearGradient>
      <linearGradient x1="744.288" gradientUnits="userSpaceOnUse" x2="974.288" y1="407.6841" y2="447.6841" id="linearGradient5" spreadMethod="reflect">
        <stop stop-opacity="1" stop-color="white" offset="0%"/>
        <stop stop-opacity="1" stop-color="white" offset="100%"/>
      </linearGradient>
      <linearGradient x1="744.288" gradientUnits="userSpaceOnUse" x2="974.288" y1="472.2301" y2="512.2301" id="linearGradient6" spreadMethod="reflect">
        <stop stop-opacity="1" stop-color="white" offset="0%"/>
        <stop stop-opacity="1" stop-color="white" offset="100%"/>
      </linearGradient>
      <linearGradient x1="744.288" gradientUnits="userSpaceOnUse" x2="974.288" y1="536.7761" y2="596.6161" id="linearGradient7" spreadMethod="reflect">
        <stop stop-opacity="1" stop-color="white" offset="0%"/>
        <stop stop-opacity="1" stop-color="white" offset="100%"/>
      </linearGradient>
      <linearGradient x1="974.288" gradientUnits="userSpaceOnUse" x2="1204.288" y1="626.6161" y2="666.6161" id="linearGradient8" spreadMethod="reflect">
        <stop stop-opacity="1" stop-color="white" offset="0%"/>
        <stop stop-opacity="1" stop-color="white" offset="100%"/>
      </linearGradient>
      <linearGradient x1="974.288" gradientUnits="userSpaceOnUse" x2="1204.288" y1="696.6161" y2="736.6161" id="linearGradient9" spreadMethod="reflect">
        <stop stop-opacity="1" stop-color="white" offset="0%"/>
        <stop stop-opacity="1" stop-color="white" offset="100%"/>
      </linearGradient>
      <linearGradient x1="744.288" gradientUnits="userSpaceOnUse" x2="974.288" y1="781.6161" y2="821.6161" id="linearGradient10" spreadMethod="reflect">
        <stop stop-opacity="1" stop-color="white" offset="0%"/>
        <stop stop-opacity="1" stop-color="white" offset="100%"/>
      </linearGradient>
      <linearGradient x1="744.288" gradientUnits="userSpaceOnUse" x2="974.288" y1="851.6161" y2="891.6161" id="linearGradient11" spreadMethod="reflect">
        <stop stop-opacity="1" stop-color="white" offset="0%"/>
        <stop stop-opacity="1" stop-color="white" offset="100%"/>
      </linearGradient>
      <linearGradient x1="744.288" gradientUnits="userSpaceOnUse" x2="974.288" y1="921.6161" y2="961.6161" id="linearGradient12" spreadMethod="reflect">
        <stop stop-opacity="1" stop-color="white" offset="0%"/>
        <stop stop-opacity="1" stop-color="white" offset="100%"/>
      </linearGradient>
      <linearGradient x1="744.288" gradientUnits="userSpaceOnUse" x2="974.288" y1="991.6161" y2="1031.6161" id="linearGradient13" spreadMethod="reflect">
        <stop stop-opacity="1" stop-color="white" offset="0%"/>
        <stop stop-opacity="1" stop-color="white" offset="100%"/>
      </linearGradient>
      <clipPath clipPathUnits="userSpaceOnUse" id="clipPath1">
        <path d="M0 0 L491 0 L491 913 L0 913 L0 0 Z"/>
      </clipPath>
      <clipPath clipPathUnits="userSpaceOnUse" id="clipPath2">
        <path d="M729 134 L1220 134 L1220 1047 L729 1047 L729 134 Z"/>
      </clipPath>
    </defs>
    <g fill="white" text-rendering="geometricPrecision" shape-rendering="geometricPrecision" transform="translate(-729,-134)" stroke="white">
      <rect x="729" width="491" height="913" y="134" clip-path="url(#clipPath2)" stroke="none"/>
    </g>
    <g fill="url(#linearGradient1)" text-rendering="geometricPrecision" shape-rendering="geometricPrecision" transform="matrix(1,0,0,1,-729,-134)" stroke="url(#linearGradient1)">
      <rect x="744.288" y="149.5" clip-path="url(#clipPath2)" width="230" rx="20" ry="20" height="40" stroke="none"/>
    </g>
    <g text-rendering="geometricPrecision" stroke-miterlimit="1.45" shape-rendering="geometricPrecision" transform="matrix(1,0,0,1,-729,-134)" stroke-linecap="butt">
      <rect x="744.288" y="149.5" clip-path="url(#clipPath2)" fill="none" width="230" rx="20" ry="20" height="40"/>
      <text x="837.6845" xml:space="preserve" y="172.6934" clip-path="url(#clipPath2)" font-family="sans-serif" stroke="none">Начало</text>
    </g>
    <g fill="url(#linearGradient2)" text-rendering="geometricPrecision" shape-rendering="geometricPrecision" transform="matrix(1,0,0,1,-729,-134)" stroke="url(#linearGradient2)">
      <path d="M744.288 214.046 L974.288 214.046 L974.288 254.046 L744.288 254.046 Z" stroke="none" clip-path="url(#clipPath2)"/>
    </g>
    <g text-rendering="geometricPrecision" stroke-miterlimit="1.45" shape-rendering="geometricPrecision" transform="matrix(1,0,0,1,-729,-134)" stroke-linecap="butt">
      <path fill="none" d="M744.288 214.046 L974.288 214.046 L974.288 254.046 L744.288 254.046 Z" clip-path="url(#clipPath2)"/>
      <text x="762.0722" xml:space="preserve" y="230.4425" clip-path="url(#clipPath2)" font-family="sans-serif" stroke="none">Всем элементам буфера кадра</text>
      <text x="794.4775" xml:space="preserve" y="244.0363" clip-path="url(#clipPath2)" font-family="sans-serif" stroke="none">записать цвет фона</text>
    </g>
    <g fill="url(#linearGradient3)" text-rendering="geometricPrecision" shape-rendering="geometricPrecision" transform="matrix(1,0,0,1,-729,-134)" stroke="url(#linearGradient3)">
      <path d="M744.288 278.592 L974.288 278.592 L974.288 318.592 L744.288 318.592 Z" stroke="none" clip-path="url(#clipPath2)"/>
    </g>
    <g text-rendering="geometricPrecision" stroke-miterlimit="1.45" shape-rendering="geometricPrecision" transform="matrix(1,0,0,1,-729,-134)" stroke-linecap="butt">
      <path fill="none" d="M744.288 278.592 L974.288 278.592 L974.288 318.592 L744.288 318.592 Z" clip-path="url(#clipPath2)"/>
      <text x="772.874" xml:space="preserve" y="294.9885" clip-path="url(#clipPath2)" font-family="sans-serif" stroke="none">Инициализировать z-буфер</text>
      <text x="754.871" xml:space="preserve" y="308.5823" clip-path="url(#clipPath2)" font-family="sans-serif" stroke="none">минимальным значением глубины</text>
    </g>
    <g fill="url(#linearGradient4)" text-rendering="geometricPrecision" shape-rendering="geometricPrecision" transform="matrix(1,0,0,1,-729,-134)" stroke="url(#linearGradient4)">
      <path d="M754.288 343.1381 L964.288 343.1381 L974.288 353.1381 L974.288 383.1381 L744.288 383.1381 L744.288 353.1381 Z" stroke="none" clip-path="url(#clipPath2)"/>
    </g>
    <g text-rendering="geometricPrecision" stroke-miterlimit="1.45" shape-rendering="geometricPrecision" transform="matrix(1,0,0,1,-729,-134)" stroke-linecap="butt">
      <path fill="none" d="M754.288 343.1381 L964.288 343.1381 L974.288 353.1381 L974.288 383.1381 L744.288 383.1381 L744.288 353.1381 Z" clip-path="url(#clipPath2)"/>
      <text x="787.2763" xml:space="preserve" y="366.3314" clip-path="url(#clipPath2)" font-family="sans-serif" stroke="none">Для каждого полигона</text>
    </g>
    <g fill="url(#linearGradient5)" text-rendering="geometricPrecision" shape-rendering="geometricPrecision" transform="matrix(1,0,0,1,-729,-134)" stroke="url(#linearGradient5)">
      <path d="M754.288 407.6841 L964.288 407.6841 L974.288 417.6841 L974.288 447.6841 L744.288 447.6841 L744.288 417.6841 Z" stroke="none" clip-path="url(#clipPath2)"/>
    </g>
    <g text-rendering="geometricPrecision" stroke-miterlimit="1.45" shape-rendering="geometricPrecision" transform="matrix(1,0,0,1,-729,-134)" stroke-linecap="butt">
      <path fill="none" d="M754.288 407.6841 L964.288 407.6841 L974.288 417.6841 L974.288 447.6841 L744.288 447.6841 L744.288 417.6841 Z" clip-path="url(#clipPath2)"/>
      <text x="790.8769" xml:space="preserve" y="424.0806" clip-path="url(#clipPath2)" font-family="sans-serif" stroke="none">Для каждого пикселя</text>
      <text x="798.0781" xml:space="preserve" y="437.6743" clip-path="url(#clipPath2)" font-family="sans-serif" stroke="none">текущего полигона</text>
    </g>
    <g fill="url(#linearGradient6)" text-rendering="geometricPrecision" shape-rendering="geometricPrecision" transform="matrix(1,0,0,1,-729,-134)" stroke="url(#linearGradient6)">
      <path d="M744.288 472.2301 L974.288 472.2301 L974.288 512.2301 L744.288 512.2301 Z" stroke="none" clip-path="url(#clipPath2)"/>
    </g>
    <g text-rendering="geometricPrecision" stroke-miterlimit="1.45" shape-rendering="geometricPrecision" transform="matrix(1,0,0,1,-729,-134)" stroke-linecap="butt">
      <path fill="none" d="M744.288 472.2301 L974.288 472.2301 L974.288 512.2301 L744.288 512.2301 Z" clip-path="url(#clipPath2)"/>
      <text x="798.0781" xml:space="preserve" y="488.6266" clip-path="url(#clipPath2)" font-family="sans-serif" stroke="none">Вычислить глубину</text>
      <text x="808.8798" xml:space="preserve" y="502.2203" clip-path="url(#clipPath2)" font-family="sans-serif" stroke="none">пикселя z(x,y)</text>
    </g>
    <g fill="url(#linearGradient7)" text-rendering="geometricPrecision" shape-rendering="geometricPrecision" transform="matrix(1,0,0,1,-729,-134)" stroke="url(#linearGradient7)">
      <path d="M859.288 536.7761 L974.288 566.6961 L859.288 596.6161 L744.288 566.6961 Z" stroke="none" clip-path="url(#clipPath2)"/>
    </g>
    <g text-rendering="geometricPrecision" stroke-miterlimit="1.45" shape-rendering="geometricPrecision" transform="matrix(1,0,0,1,-729,-134)" stroke-linecap="butt">
      <path fill="none" d="M859.288 536.7761 L974.288 566.6961 L859.288 596.6161 L744.288 566.6961 Z" clip-path="url(#clipPath2)"/>
      <text x="790.8769" xml:space="preserve" y="569.8895" clip-path="url(#clipPath2)" font-family="sans-serif" stroke="none">z(x,y) &gt; z_buf(x,y)</text>
    </g>
    <g fill="url(#linearGradient8)" text-rendering="geometricPrecision" shape-rendering="geometricPrecision" transform="matrix(1,0,0,1,-729,-134)" stroke="url(#linearGradient8)">
      <path d="M974.288 626.6161 L1204.288 626.6161 L1204.288 666.6161 L974.288 666.6161 Z" stroke="none" clip-path="url(#clipPath2)"/>
    </g>
    <g text-rendering="geometricPrecision" stroke-miterlimit="1.45" shape-rendering="geometricPrecision" transform="matrix(1,0,0,1,-729,-134)" stroke-linecap="butt">
      <path fill="none" d="M974.288 626.6161 L1204.288 626.6161 L1204.288 666.6161 L974.288 666.6161 Z" clip-path="url(#clipPath2)"/>
      <text x="1020.8769" xml:space="preserve" y="649.8094" clip-path="url(#clipPath2)" font-family="sans-serif" stroke="none">z_buf(x,y) = z(x,y)</text>
    </g>
    <g fill="url(#linearGradient9)" text-rendering="geometricPrecision" shape-rendering="geometricPrecision" transform="matrix(1,0,0,1,-729,-134)" stroke="url(#linearGradient9)">
      <path d="M974.288 696.6161 L1204.288 696.6161 L1204.288 736.6161 L974.288 736.6161 Z" stroke="none" clip-path="url(#clipPath2)"/>
    </g>
    <g text-rendering="geometricPrecision" stroke-miterlimit="1.45" shape-rendering="geometricPrecision" transform="matrix(1,0,0,1,-729,-134)" stroke-linecap="butt">
      <path fill="none" d="M974.288 696.6161 L1204.288 696.6161 L1204.288 736.6161 L974.288 736.6161 Z" clip-path="url(#clipPath2)"/>
      <text x="995.6728" xml:space="preserve" y="719.8094" clip-path="url(#clipPath2)" font-family="sans-serif" stroke="none">canvas(x,y) = цвет пикселя</text>
    </g>
    <g fill="url(#linearGradient10)" text-rendering="geometricPrecision" shape-rendering="geometricPrecision" transform="matrix(1,0,0,1,-729,-134)" stroke="url(#linearGradient10)">
      <path d="M744.288 781.6161 L974.288 781.6161 L974.288 811.6161 L964.288 821.6161 L754.288 821.6161 L744.288 811.6161 Z" stroke="none" clip-path="url(#clipPath2)"/>
    </g>
    <g text-rendering="geometricPrecision" stroke-miterlimit="1.45" shape-rendering="geometricPrecision" transform="matrix(1,0,0,1,-729,-134)" stroke-linecap="butt">
      <path fill="none" d="M744.288 781.6161 L974.288 781.6161 L974.288 811.6161 L964.288 821.6161 L754.288 821.6161 L744.288 811.6161 Z" clip-path="url(#clipPath2)"/>
      <text x="776.4745" xml:space="preserve" y="804.8094" clip-path="url(#clipPath2)" font-family="sans-serif" stroke="none">Конец цикла по пикселям</text>
    </g>
    <g fill="url(#linearGradient11)" text-rendering="geometricPrecision" shape-rendering="geometricPrecision" transform="matrix(1,0,0,1,-729,-134)" stroke="url(#linearGradient11)">
      <path d="M744.288 851.6161 L974.288 851.6161 L974.288 881.6161 L964.288 891.6161 L754.288 891.6161 L744.288 881.6161 Z" stroke="none" clip-path="url(#clipPath2)"/>
    </g>
    <g text-rendering="geometricPrecision" stroke-miterlimit="1.45" shape-rendering="geometricPrecision" transform="matrix(1,0,0,1,-729,-134)" stroke-linecap="butt">
      <path fill="none" d="M744.288 851.6161 L974.288 851.6161 L974.288 881.6161 L964.288 891.6161 L754.288 891.6161 L744.288 881.6161 Z" clip-path="url(#clipPath2)"/>
      <text x="772.874" xml:space="preserve" y="874.8094" clip-path="url(#clipPath2)" font-family="sans-serif" stroke="none">Конец цикла по полигонам</text>
    </g>
    <g fill="url(#linearGradient12)" text-rendering="geometricPrecision" shape-rendering="geometricPrecision" transform="matrix(1,0,0,1,-729,-134)" stroke="url(#linearGradient12)">
      <path d="M754.488 921.6161 L974.288 921.6161 L964.088 961.6161 L744.288 961.6161 Z" stroke="none" clip-path="url(#clipPath2)"/>
    </g>
    <g text-rendering="geometricPrecision" stroke-miterlimit="1.45" shape-rendering="geometricPrecision" transform="matrix(1,0,0,1,-729,-134)" stroke-linecap="butt">
      <path fill="none" d="M754.488 921.6161 L974.288 921.6161 L964.088 961.6161 L744.288 961.6161 Z" clip-path="url(#clipPath2)"/>
      <text x="787.2763" xml:space="preserve" y="944.8094" clip-path="url(#clipPath2)" font-family="sans-serif" stroke="none">Возврат буфера кадра</text>
    </g>
    <g fill="url(#linearGradient13)" text-rendering="geometricPrecision" shape-rendering="geometricPrecision" transform="matrix(1,0,0,1,-729,-134)" stroke="url(#linearGradient13)">
      <rect x="744.288" y="991.6161" clip-path="url(#clipPath2)" width="230" rx="20" ry="20" height="40" stroke="none"/>
    </g>
    <g text-rendering="geometricPrecision" stroke-miterlimit="1.45" shape-rendering="geometricPrecision" transform="matrix(1,0,0,1,-729,-134)" stroke-linecap="butt">
      <rect x="744.288" y="991.6161" clip-path="url(#clipPath2)" fill="none" width="230" rx="20" ry="20" height="40"/>
      <text x="841.2851" xml:space="preserve" y="1014.8094" clip-path="url(#clipPath2)" font-family="sans-serif" stroke="none">Конец</text>
    </g>
    <g text-rendering="geometricPrecision" stroke-miterlimit="1.45" shape-rendering="geometricPrecision" transform="matrix(1,0,0,1,-729,-134)" stroke-linecap="butt">
      <path fill="none" d="M859.288 189.513 L859.288 206.0845" clip-path="url(#clipPath2)"/>
    </g>
    <g text-rendering="geometricPrecision" stroke-miterlimit="1.45" shape-rendering="geometricPrecision" transform="matrix(1,0,0,1,-729,-134)" stroke-linecap="butt">
      <path d="M859.288 214.0845 L864.288 202.0845 L859.288 205.0845 L854.288 202.0845 Z" stroke="none" clip-path="url(#clipPath2)"/>
      <path fill="none" d="M859.288 254.0591 L859.288 270.6305" clip-path="url(#clipPath2)"/>
      <path d="M859.288 278.6305 L864.288 266.6305 L859.288 269.6305 L854.288 266.6305 Z" clip-path="url(#clipPath2)" stroke="none"/>
      <path fill="none" d="M859.288 318.6051 L859.288 335.1765" clip-path="url(#clipPath2)"/>
      <path d="M859.288 343.1765 L864.288 331.1765 L859.288 334.1765 L854.288 331.1765 Z" clip-path="url(#clipPath2)" stroke="none"/>
      <path fill="none" d="M859.288 383.1511 L859.288 399.7225" clip-path="url(#clipPath2)"/>
      <path d="M859.288 407.7225 L864.288 395.7225 L859.288 398.7225 L854.288 395.7225 Z" clip-path="url(#clipPath2)" stroke="none"/>
      <path fill="none" d="M859.288 447.6971 L859.288 464.2685" clip-path="url(#clipPath2)"/>
      <path d="M859.288 472.2685 L864.288 460.2685 L859.288 463.2685 L854.288 460.2685 Z" clip-path="url(#clipPath2)" stroke="none"/>
      <path fill="none" d="M859.288 512.2646 L859.288 528.796" clip-path="url(#clipPath2)"/>
      <path d="M859.288 536.796 L864.288 524.796 L859.288 527.796 L854.288 524.796 Z" clip-path="url(#clipPath2)" stroke="none"/>
      <path fill="none" d="M974.2599 566.6961 L1089.288 566.6961 L1089.288 618.5971" clip-path="url(#clipPath2)"/>
      <path d="M1089.288 626.5971 L1094.288 614.5971 L1089.288 617.5971 L1084.288 614.5971 Z" clip-path="url(#clipPath2)" stroke="none"/>
      <text x="995.6874" xml:space="preserve" y="560.8895" clip-path="url(#clipPath2)" font-family="sans-serif" stroke="none">Да</text>
      <path fill="none" d="M1089.288 666.6112 L1089.288 688.6434" clip-path="url(#clipPath2)"/>
      <path d="M1089.288 696.6434 L1094.288 684.6434 L1089.288 687.6434 L1084.288 684.6434 Z" clip-path="url(#clipPath2)" stroke="none"/>
      <path fill="none" d="M1089.288 736.5858 L1089.288 754 L859.288 754 L859.288 773.5746" clip-path="url(#clipPath2)"/>
      <path d="M859.288 781.5746 L864.288 769.5746 L859.288 772.5746 L854.288 769.5746 Z" clip-path="url(#clipPath2)" stroke="none"/>
      <path fill="none" d="M859.288 596.606 L859.288 773.6206" clip-path="url(#clipPath2)"/>
      <path d="M859.288 781.6206 L864.288 769.6206 L859.288 772.6206 L854.288 769.6206 Z" clip-path="url(#clipPath2)" stroke="none"/>
      <path fill="none" d="M859.288 821.6112 L859.288 843.6434" clip-path="url(#clipPath2)"/>
      <path d="M859.288 851.6434 L864.288 839.6434 L859.288 842.6434 L854.288 839.6434 Z" clip-path="url(#clipPath2)" stroke="none"/>
      <path fill="none" d="M859.288 891.6112 L859.288 913.6434" clip-path="url(#clipPath2)"/>
      <path d="M859.288 921.6434 L864.288 909.6434 L859.288 912.6434 L854.288 909.6434 Z" clip-path="url(#clipPath2)" stroke="none"/>
      <path fill="none" d="M859.288 961.6112 L859.288 983.6434" clip-path="url(#clipPath2)"/>
      <path d="M859.288 991.6434 L864.288 979.6434 L859.288 982.6434 L854.288 979.6434 Z" clip-path="url(#clipPath2)" stroke="none"/>
    </g>
  </g>
</svg>
