# dod_out.obj

v -0.57735 -0.57735 0.57735
v 0.934172 0.356822 0.0
v 0.934172 -0.356822 0.0
v -0.934172 0.356822 0.0
v -0.934172 -0.356822 0.0
v 0.0 0.934172 0.356822
v 0.0 0.934172 -0.356822
v 0.356822 0.0 -0.934172
v -0.356822 0.0 -0.934172
v 0.0 -0.934172 -0.356822
v 0.0 -0.934172 0.356822
v 0.356822 0.0 0.934172
v -0.356822 0.0 0.934172
v 0.57735 0.57735 -0.57735
v 0.57735 0.57735 0.57735
v -0.57735 0.57735 -0.57735
v -0.57735 0.57735 0.57735
v 0.57735 -0.57735 -0.57735
v 0.57735 -0.57735 0.57735
v -0.57735 -0.57735 -0.57735

vn 0.41202236340000004 0.0 0.2546438793679999
vn 0.666666143884 -9.888399993274177e-08 0.41202226451600005
vn 0.41202226451600005 9.888399996049735e-08 0.254643780484
vn 0.4120222645160001 9.888399993274177e-08 -0.254643780484
vn 0.666666143884 -9.888399996049735e-08 -0.41202226451600005
vn 0.4120223634 0.0 -0.254643879368
vn -0.41202236340000004 0.0 -0.2546438793679999
vn -0.666666143884 -9.888399993274177e-08 -0.41202226451600005
vn -0.41202226451600005 9.888399996049735e-08 -0.254643780484
vn -0.4120222645160001 9.888399993274177e-08 0.254643780484
vn -0.666666143884 -9.888399996049735e-08 0.41202226451600005
vn -0.4120223634 0.0 0.254643879368
vn -0.25464378048400005 0.41202226451600005 -9.888399993274177e-08
vn -0.4120223634 0.6666662427679999 0.0
vn -0.254643780484 0.41202226451600005 9.888399996049735e-08
vn 0.25464378048400005 0.41202226451600005 9.888399993274177e-08
vn 0.4120223634 0.6666662427679999 -0.0
vn 0.254643780484 0.41202226451600005 -9.888399996049735e-08
vn 0.25464378048400005 -0.41202226451600005 -9.888399993274177e-08
vn 0.4120223634 -0.6666662427679999 0.0
vn 0.254643780484 -0.41202226451600005 9.888399996049735e-08
vn -0.25464378048400005 -0.41202226451600005 9.888399993274177e-08
vn -0.4120223634 -0.6666662427679999 0.0
vn -0.254643780484 -0.41202226451600005 -9.888399996049735e-08
vn 0.0 -0.2546438793679999 -0.41202236340000004
vn -9.888399993274177e-08 -0.41202226451600005 -0.666666143884
vn 9.888399996049735e-08 -0.254643780484 -0.41202226451600005
vn -9.888399993274177e-08 0.25464378048400005 -0.41202226451600005
vn 0.0 0.4120223634 -0.6666662427679999
vn 9.888399996049735e-08 0.254643780484 -0.41202226451600005
vn 9.888399993274177e-08 0.25464378048400005 0.41202226451600005
vn -0.0 0.4120223634 0.6666662427679999
vn -9.888399996049735e-08 0.254643780484 0.41202226451600005
vn -9.888399993274177e-08 -0.25464378048400005 0.41202226451600005
vn 0.0 -0.4120223634 0.6666662427679999
vn 9.888399996049735e-08 -0.254643780484 0.41202226451600005

f 19//1 3//1 2//1
f 12//2 19//2 2//2
f 15//3 12//3 2//3
f 8//4 14//4 2//4
f 18//5 8//5 2//5
f 3//6 18//6 2//6
f 20//7 5//7 4//7
f 9//8 20//8 4//8
f 16//9 9//9 4//9
f 13//10 17//10 4//10
f 1//11 13//11 4//11
f 5//12 1//12 4//12
f 7//13 16//13 4//13
f 6//14 7//14 4//14
f 17//15 6//15 4//15
f 6//16 15//16 2//16
f 7//17 6//17 2//17
f 14//18 7//18 2//18
f 10//19 18//19 3//19
f 11//20 10//20 3//20
f 19//21 11//21 3//21
f 11//22 1//22 5//22
f 10//23 11//23 5//23
f 20//24 10//24 5//24
f 20//25 9//25 8//25
f 10//26 20//26 8//26
f 18//27 10//27 8//27
f 9//28 16//28 7//28
f 8//29 9//29 7//29
f 14//30 8//30 7//30
f 12//31 15//31 6//31
f 13//32 12//32 6//32
f 17//33 13//33 6//33
f 13//34 1//34 11//34
f 12//35 13//35 11//35
f 19//36 12//36 11//36